<svg width="28" height="30" viewBox="0 0 28 30" fill="none" xmlns="http://www.w3.org/2000/svg">
<g filter="url(#filter0_b_421_38225)">
<path d="M24.7413 0C26.4988 0 27.9163 1.42125 28 3.09375V30L24.6538 27.1587L22.8163 25.4862L20.8113 23.7387L21.6488 26.495H4.10127C2.34877 26.495 0.92627 25.1637 0.92627 23.4V3.1C0.92627 1.4275 2.35127 0.00375 4.10752 0.00375H24.7325L24.7413 0ZM17.0938 7.10375H17.0563L16.8038 7.35375C19.395 8.10375 20.6488 9.275 20.6488 9.275C18.9788 8.44 17.4738 8.0225 15.9688 7.85375C14.8813 7.685 13.7938 7.77375 12.875 7.85375H12.625C12.0375 7.85375 10.7875 8.10375 9.11252 8.7725C8.52877 9.02625 8.19377 9.1925 8.19377 9.1925C8.19377 9.1925 9.44627 7.94 12.2063 7.27125L12.0375 7.1025C12.0375 7.1025 9.94752 7.0225 7.69127 8.69C7.69127 8.69 5.43502 12.62 5.43502 17.465C5.43502 17.465 6.68502 19.64 10.1138 19.7225C10.1138 19.7225 10.6138 19.0562 11.12 18.47C9.19502 17.885 8.44502 16.715 8.44502 16.715C8.44502 16.715 8.61252 16.7975 8.86377 16.965H8.93877C8.97627 16.965 8.99377 16.9837 9.01377 17.0025V17.01C9.03377 17.03 9.05127 17.0475 9.08877 17.0475C9.50127 17.2175 9.91377 17.385 10.2513 17.5475C10.9731 17.8565 11.728 18.0813 12.5013 18.2175C13.6638 18.3862 14.9963 18.4675 16.5138 18.2175C17.2638 18.0487 18.0138 17.8837 18.7638 17.5487C19.2513 17.2987 19.8513 17.0487 20.51 16.6275C20.51 16.6275 19.76 17.7975 17.7538 18.3825C18.1663 18.965 18.7475 19.6325 18.7475 19.6325C22.1775 19.5575 23.51 17.3825 23.585 17.475C23.585 12.6375 21.3163 8.7 21.3163 8.7C19.2725 7.1825 17.36 7.125 17.0225 7.125L17.0925 7.1L17.0938 7.10375ZM17.3038 12.62C18.1825 12.62 18.8913 13.37 18.8913 14.2887C18.8913 15.2137 18.1788 15.9637 17.3038 15.9637C16.4288 15.9637 15.7163 15.2138 15.7163 14.2963C15.7188 13.3713 16.4325 12.6237 17.3038 12.6237V12.62ZM11.625 12.62C12.5 12.62 13.2075 13.37 13.2075 14.2887C13.2075 15.2137 12.495 15.9637 11.62 15.9637C10.745 15.9637 10.0325 15.2138 10.0325 14.2963C10.0325 13.3713 10.745 12.6237 11.62 12.6237L11.625 12.62Z" fill="#F7FAFF"/>
</g>
<defs>
<filter id="filter0_b_421_38225" x="-19.0737" y="-20" width="67.0737" height="70" filterUnits="userSpaceOnUse" color-interpolation-filters="sRGB">
<feFlood flood-opacity="0" result="BackgroundImageFix"/>
<feGaussianBlur in="BackgroundImageFix" stdDeviation="10"/>
<feComposite in2="SourceAlpha" operator="in" result="effect1_backgroundBlur_421_38225"/>
<feBlend mode="normal" in="SourceGraphic" in2="effect1_backgroundBlur_421_38225" result="shape"/>
</filter>
</defs>
</svg>
