<svg width="30" height="30" viewBox="0 0 30 30" fill="none" xmlns="http://www.w3.org/2000/svg">
<g filter="url(#filter0_b_421_38205)">
<path d="M20 15C20 13.6198 19.5117 12.4414 18.5352 11.4648C17.5586 10.4883 16.3802 10 15 10C13.6198 10 12.4414 10.4883 11.4648 11.4648C10.4883 12.4414 10 13.6198 10 15C10 16.3802 10.4883 17.5586 11.4648 18.5352C12.4414 19.5117 13.6198 20 15 20C16.3802 20 17.5586 19.5117 18.5352 18.5352C19.5117 17.5586 20 16.3802 20 15ZM22.6953 15C22.6953 17.1354 21.9466 18.9518 20.4492 20.4492C18.9518 21.9466 17.1354 22.6953 15 22.6953C12.8646 22.6953 11.0482 21.9466 9.55078 20.4492C8.05339 18.9518 7.30469 17.1354 7.30469 15C7.30469 12.8646 8.05339 11.0482 9.55078 9.55078C11.0482 8.05339 12.8646 7.30469 15 7.30469C17.1354 7.30469 18.9518 8.05339 20.4492 9.55078C21.9466 11.0482 22.6953 12.8646 22.6953 15ZM24.8047 6.99219C24.8047 7.48698 24.6289 7.91016 24.2773 8.26172C23.9258 8.61328 23.5026 8.78906 23.0078 8.78906C22.513 8.78906 22.0898 8.61328 21.7383 8.26172C21.3867 7.91016 21.2109 7.48698 21.2109 6.99219C21.2109 6.4974 21.3867 6.07422 21.7383 5.72266C22.0898 5.37109 22.513 5.19531 23.0078 5.19531C23.5026 5.19531 23.9258 5.37109 24.2773 5.72266C24.6289 6.07422 24.8047 6.4974 24.8047 6.99219ZM15 2.69531C14.9089 2.69531 14.4108 2.69206 13.5059 2.68555C12.6009 2.67904 11.9141 2.67904 11.4453 2.68555C10.9766 2.69206 10.3483 2.71159 9.56055 2.74414C8.77279 2.77669 8.10221 2.8418 7.54883 2.93945C6.99544 3.03711 6.52995 3.15755 6.15234 3.30078C5.5013 3.5612 4.92839 3.9388 4.43359 4.43359C3.9388 4.92839 3.5612 5.5013 3.30078 6.15234C3.15755 6.52995 3.03711 6.99544 2.93945 7.54883C2.8418 8.10221 2.77669 8.77279 2.74414 9.56055C2.71159 10.3483 2.69206 10.9766 2.68555 11.4453C2.67904 11.9141 2.67904 12.6009 2.68555 13.5059C2.69206 14.4108 2.69531 14.9089 2.69531 15C2.69531 15.0911 2.69206 15.5892 2.68555 16.4941C2.67904 17.3991 2.67904 18.0859 2.68555 18.5547C2.69206 19.0234 2.71159 19.6517 2.74414 20.4395C2.77669 21.2272 2.8418 21.8978 2.93945 22.4512C3.03711 23.0046 3.15755 23.4701 3.30078 23.8477C3.5612 24.4987 3.9388 25.0716 4.43359 25.5664C4.92839 26.0612 5.5013 26.4388 6.15234 26.6992C6.52995 26.8424 6.99544 26.9629 7.54883 27.0605C8.10221 27.1582 8.77279 27.2233 9.56055 27.2559C10.3483 27.2884 10.9766 27.3079 11.4453 27.3145C11.9141 27.321 12.6009 27.321 13.5059 27.3145C14.4108 27.3079 14.9089 27.3047 15 27.3047C15.0911 27.3047 15.5892 27.3079 16.4941 27.3145C17.3991 27.321 18.0859 27.321 18.5547 27.3145C19.0234 27.3079 19.6517 27.2884 20.4395 27.2559C21.2272 27.2233 21.8978 27.1582 22.4512 27.0605C23.0046 26.9629 23.4701 26.8424 23.8477 26.6992C24.4987 26.4388 25.0716 26.0612 25.5664 25.5664C26.0612 25.0716 26.4388 24.4987 26.6992 23.8477C26.8424 23.4701 26.9629 23.0046 27.0605 22.4512C27.1582 21.8978 27.2233 21.2272 27.2559 20.4395C27.2884 19.6517 27.3079 19.0234 27.3145 18.5547C27.321 18.0859 27.321 17.3991 27.3145 16.4941C27.3079 15.5892 27.3047 15.0911 27.3047 15C27.3047 14.9089 27.3079 14.4108 27.3145 13.5059C27.321 12.6009 27.321 11.9141 27.3145 11.4453C27.3079 10.9766 27.2884 10.3483 27.2559 9.56055C27.2233 8.77279 27.1582 8.10221 27.0605 7.54883C26.9629 6.99544 26.8424 6.52995 26.6992 6.15234C26.4388 5.5013 26.0612 4.92839 25.5664 4.43359C25.0716 3.9388 24.4987 3.5612 23.8477 3.30078C23.4701 3.15755 23.0046 3.03711 22.4512 2.93945C21.8978 2.8418 21.2272 2.77669 20.4395 2.74414C19.6517 2.71159 19.0234 2.69206 18.5547 2.68555C18.0859 2.67904 17.3991 2.67904 16.4941 2.68555C15.5892 2.69206 15.0911 2.69531 15 2.69531ZM30 15C30 17.9818 29.9674 20.0456 29.9023 21.1914C29.7721 23.8997 28.9648 25.9961 27.4805 27.4805C25.9961 28.9648 23.8997 29.7721 21.1914 29.9023C20.0456 29.9674 17.9818 30 15 30C12.0182 30 9.95443 29.9674 8.80859 29.9023C6.10026 29.7721 4.00391 28.9648 2.51953 27.4805C1.03516 25.9961 0.227865 23.8997 0.0976562 21.1914C0.0325521 20.0456 0 17.9818 0 15C0 12.0182 0.0325521 9.95443 0.0976562 8.80859C0.227865 6.10026 1.03516 4.00391 2.51953 2.51953C4.00391 1.03516 6.10026 0.227865 8.80859 0.0976562C9.95443 0.0325521 12.0182 0 15 0C17.9818 0 20.0456 0.0325521 21.1914 0.0976562C23.8997 0.227865 25.9961 1.03516 27.4805 2.51953C28.9648 4.00391 29.7721 6.10026 29.9023 8.80859C29.9674 9.95443 30 12.0182 30 15Z" fill="#F7FAFF"/>
</g>
<defs>
<filter id="filter0_b_421_38205" x="-20" y="-20" width="70" height="70" filterUnits="userSpaceOnUse" color-interpolation-filters="sRGB">
<feFlood flood-opacity="0" result="BackgroundImageFix"/>
<feGaussianBlur in="BackgroundImageFix" stdDeviation="10"/>
<feComposite in2="SourceAlpha" operator="in" result="effect1_backgroundBlur_421_38205"/>
<feBlend mode="normal" in="SourceGraphic" in2="effect1_backgroundBlur_421_38205" result="shape"/>
</filter>
</defs>
</svg>
