<svg width="24" height="22" viewBox="0 0 24 22" fill="none" xmlns="http://www.w3.org/2000/svg">
<path d="M12.1111 5.44444C12.1111 4.2657 11.6429 3.13524 10.8094 2.30175C9.97587 1.46825 8.84541 1 7.66667 1H1V17.6667H8.77778C9.66183 17.6667 10.5097 18.0179 11.1348 18.643C11.7599 19.2681 12.1111 20.1159 12.1111 21M12.1111 5.44444V21M12.1111 5.44444C12.1111 4.2657 12.5794 3.13524 13.4129 2.30175C14.2464 1.46825 15.3768 1 16.5556 1H23.2222V17.6667H15.4444C14.5604 17.6667 13.7125 18.0179 13.0874 18.643C12.4623 19.2681 12.1111 20.1159 12.1111 21" stroke="#F7FAFF" stroke-linecap="round" stroke-linejoin="round"/>
</svg>
