<svg width="28" height="24" viewBox="0 0 28 24" fill="none" xmlns="http://www.w3.org/2000/svg">
  <path d="M 0.722 13.275 C -0.42 11.348 0.211 8.909 2.132 7.829 C 4.054 6.749 6.538 7.436 7.68 9.363 L 12.696 17.825 C 13.839 19.753 13.207 22.192 11.286 23.272 C 9.366 24.352 6.881 23.666 5.738 21.738 L 0.722 13.275 Z" fill="url(#paint0_linear_2290_2172)" style=""/>
  <path d="M 18.387 12.221 C 18.387 13.254 16.569 14.093 14.327 14.093 C 12.085 14.093 10.268 13.254 10.268 12.221 C 10.268 11.184 12.085 10.346 14.327 10.346 C 16.569 10.346 18.387 11.184 18.387 12.221 Z" fill="url(#paint1_linear_2290_2172)" style=""/>
  <path d="M 15.919 6.351 C 14.831 4.401 15.432 1.935 17.263 0.842 C 19.094 -0.251 21.46 0.444 22.549 2.393 L 27.329 10.952 C 28.417 12.902 27.816 15.369 25.985 16.461 C 24.154 17.555 21.787 16.86 20.699 14.91 L 15.919 6.351 Z" fill="url(#paint0_linear_2290_2172)" style=""/>
  <defs>
    <linearGradient id="paint0_linear_2290_2172" x1="4.83591" y1="2.61345" x2="15.441" y2="21.0019" gradientUnits="userSpaceOnUse" gradientTransform="matrix(0.69575, 0, 0, 0.684451, 9.934423, 1.353784)">
      <stop stop-color="#1DC071"/>
      <stop offset="1" stop-color="#77D9AA"/>
    </linearGradient>
    <linearGradient id="paint1_linear_2290_2172" x1="22.5435" y1="1.92645" x2="22.5205" y2="11.2863" gradientUnits="userSpaceOnUse" gradientTransform="matrix(0.865249, 0, 0, 0.393236, -5.179431, 9.587896)">
      <stop stop-color="#1DC071"/>
      <stop offset="1" stop-color="#77D9AA"/>
    </linearGradient>
  </defs>
</svg>