<svg width="66" height="66" viewBox="0 0 66 66" fill="none" xmlns="http://www.w3.org/2000/svg">
<g filter="url(#filter0_d_617_22587)">
<g clip-path="url(#clip0_617_22587)">
<path d="M34.8301 45.1899V50.3088C34.4906 50.2778 34.151 50.2563 33.8115 50.2445V45.1899H34.8301Z" fill="#18A5FF"/>
<path d="M34.8301 17.1909V22.0554H33.8115V17.3384C34.1589 17.2899 34.498 17.2414 34.8301 17.1909Z" fill="#18A5FF"/>
<path d="M36.041 50.4427C35.6968 50.3972 35.3538 50.358 35.0123 50.325L34.83 47.7863L34.6436 45.1962L34.7322 45.1903L35.5633 45.1339L35.6591 45.1279L35.8465 47.7289L36.041 50.4427Z" fill="#18A5FF"/>
<path d="M33.9971 22.0492L33.9085 22.0551L33.0773 22.1115L32.9816 22.1175L32.7941 19.5165L32.6475 17.4786C32.8277 17.4648 33.0141 17.446 33.2046 17.4202L33.6599 17.3589L33.8107 19.4591L33.9971 22.0492Z" fill="#18A5FF"/>
<path d="M37.2929 50.6245C36.9415 50.5691 36.5911 50.5166 36.2417 50.4691L35.8455 47.7285L35.4717 45.1464L35.5623 45.1335L36.3894 45.0217L36.4811 45.0088L36.8539 47.589L37.2929 50.6245Z" fill="#18A5FF"/>
<path d="M33.1685 22.1018L33.0778 22.1147L32.2508 22.2265L32.1591 22.2394L31.7863 19.6592L31.4746 17.5036C31.8168 17.5195 32.1596 17.5159 32.5013 17.4927L32.7947 19.5196L33.1685 22.1018Z" fill="#18A5FF"/>
<path d="M38.6058 50.8366L37.5292 50.6614L36.857 47.5933L36.2998 45.0447L36.3925 45.0259L37.1982 44.8587L37.3 44.8389L37.8562 47.3805L38.6058 50.8366Z" fill="#18A5FF"/>
<path d="M32.3436 22.2007L32.2509 22.2195L31.4452 22.3868L31.3433 22.4066L30.7872 19.865L30.2402 17.3511C30.5952 17.423 30.955 17.47 31.3169 17.4916L31.7905 19.6561L32.3436 22.2007Z" fill="#18A5FF"/>
<path d="M39.9949 51.055C39.6251 51.0006 39.2554 50.9412 38.8836 50.8818L37.8498 47.3762L37.1123 44.8781L37.1958 44.8544L38.0107 44.6287L38.0952 44.605L38.8317 47.1021L39.9949 51.055Z" fill="#18A5FF"/>
<path d="M31.529 22.3668L31.4455 22.3905L30.6306 22.6162L30.5461 22.6399L29.8097 20.1429L28.8604 16.9263C29.2395 17.0805 29.6304 17.2055 30.0297 17.3004L30.7875 19.8687L31.529 22.3668Z" fill="#18A5FF"/>
<path d="M41.4629 51.2464C41.0861 51.2068 40.7071 51.1573 40.3262 51.1038L38.8269 47.1024L37.9102 44.6617L38.0028 44.6291L38.7821 44.3529L38.8666 44.3232L39.7833 46.7689L41.4629 51.2464Z" fill="#18A5FF"/>
<path d="M30.7268 22.5836L30.6341 22.6163L29.8549 22.8934L29.7704 22.9231L28.8536 20.4775L27.2168 16.1099C27.6395 16.3454 28.0785 16.5849 28.5583 16.8027L29.8121 20.1489L30.7268 22.5836Z" fill="#18A5FF"/>
<path d="M43.0038 51.3592C42.6239 51.3473 42.2419 51.3216 41.8559 51.286L39.7851 46.7689L38.6963 44.3935L38.7849 44.3549L39.5519 44.0234L39.6262 43.9907L40.7131 46.3611L43.0038 51.3592Z" fill="#18A5FF"/>
<path d="M29.9432 22.8541L29.8546 22.8927L29.0876 23.2242L29.0132 23.2569L27.9264 20.8865L25.3066 15.1738C25.8011 15.3536 26.2783 15.5755 26.7326 15.8369L28.8594 20.4768L29.9432 22.8541Z" fill="#18A5FF"/>
<path d="M44.5842 51.3253C44.2114 51.3563 43.8345 51.3701 43.4536 51.3668L40.7136 46.3588L39.4648 44.0736L39.5575 44.0261L40.2817 43.651L40.3632 43.6084L41.6222 45.9085L44.5842 51.3253Z" fill="#18A5FF"/>
<path d="M29.1776 23.1767L29.0849 23.2242L28.3627 23.5993L28.2812 23.6418L27.0223 21.3417L23.5225 14.9451C23.9203 14.9102 24.3212 14.9328 24.7122 15.0124L27.9257 20.8864L29.1776 23.1767Z" fill="#18A5FF"/>
<path d="M46.1437 51.0749C45.7905 51.1612 45.4324 51.2273 45.0712 51.2728L41.6172 45.9026L40.1963 43.6935L40.2768 43.645L40.9898 43.2145L41.0641 43.1689L42.484 45.377L46.1437 51.0749Z" fill="#18A5FF"/>
<path d="M28.4445 23.5508L28.364 23.5993L27.651 24.0298L27.5767 24.0753L26.1568 21.8673L21.9531 15.3351C22.2788 15.2057 22.6155 15.1044 22.9595 15.0322L27.0195 21.3457L28.4445 23.5508Z" fill="#18A5FF"/>
<path d="M47.6136 50.5582C47.2972 50.7056 46.9708 50.832 46.6368 50.9363L42.481 45.378L40.9053 43.2719L40.9857 43.2155L41.658 42.7404L41.7293 42.6899L43.3009 44.7911L47.6136 50.5582Z" fill="#18A5FF"/>
<path d="M27.7353 23.9733L27.6549 24.0297L26.9826 24.5048L26.9113 24.5552L25.3397 22.4541L20.5371 16.0308C20.8539 15.8457 21.1533 15.6873 21.4396 15.5537L26.1606 21.8672L27.7353 23.9733Z" fill="#18A5FF"/>
<path d="M48.9379 49.7735C48.6651 49.9742 48.3793 50.1577 48.0823 50.3228L43.3062 44.7913L41.5879 42.8019L41.6633 42.7406L42.2927 42.2269L42.3681 42.1655L44.0946 44.1648L48.9379 49.7735Z" fill="#18A5FF"/>
<path d="M27.0582 24.4433L26.9828 24.5047L26.3534 25.0184L26.278 25.0797L24.5515 23.0805L19.2295 16.9175C19.4929 16.708 19.7673 16.5117 20.0515 16.3296L25.3399 22.454L27.0582 24.4433Z" fill="#18A5FF"/>
<path d="M50.0727 48.7598C49.843 49.004 49.5992 49.2353 49.3424 49.4526L44.0897 44.1675L42.2236 42.287L42.2878 42.2266L42.8989 41.6536L42.957 41.5991L44.82 43.4796L50.0727 48.7598Z" fill="#18A5FF"/>
<path d="M26.4174 24.958L26.3533 25.0183L25.7421 25.5914L25.684 25.6458L23.8201 23.7703L18.0957 18.0111C18.3108 17.7546 18.544 17.5128 18.7934 17.2876L24.5504 23.0804L26.4174 24.958Z" fill="#18A5FF"/>
<path d="M51.0471 47.5911C50.8657 47.8425 50.659 48.1038 50.4206 48.375L44.8185 43.4749L42.8262 41.731L42.8975 41.6538L43.4465 41.0599L43.5076 40.9946L45.5009 42.7385L51.0471 47.5911Z" fill="#18A5FF"/>
<path d="M25.8156 25.5147L25.7443 25.5919L25.1953 26.1857L25.1342 26.251L23.1388 24.5071L17.2393 19.3447C17.3839 19.0374 17.5542 18.7422 17.7485 18.4619L23.8172 23.7708L25.8156 25.5147Z" fill="#18A5FF"/>
<path d="M51.8021 46.2661C51.6723 46.5783 51.5156 46.8793 51.3336 47.1658L45.5012 42.7387L43.3877 41.1344L43.4468 41.0602L43.9561 40.4238L44.0121 40.3545L46.1266 41.9598L51.8021 46.2661Z" fill="#18A5FF"/>
<path d="M25.2537 26.1114L25.1947 26.1856L24.6854 26.822L24.6294 26.8913L22.5148 25.286L16.7334 20.8976C16.8039 20.5458 16.9016 20.1998 17.0257 19.8623L23.1433 24.5071L25.2537 26.1114Z" fill="#18A5FF"/>
<path d="M52.12 44.6911C52.122 45.0612 52.0706 45.4296 51.9673 45.7858L46.1298 41.9595L43.9053 40.5016L43.9593 40.4234L44.4217 39.7574L44.4747 39.6812L46.689 41.1321L52.12 44.6911Z" fill="#18A5FF"/>
<path d="M24.7359 26.7434L24.6819 26.8216L24.2195 27.4877L24.1665 27.5639L21.9521 26.113L16.5537 22.5727C16.5641 22.1931 16.5944 21.8142 16.6444 21.4375L22.5154 25.2855L24.7359 26.7434Z" fill="#18A5FF"/>
<path d="M52.0815 44.1578L46.6892 41.1322L44.376 39.8346L44.4218 39.7574L44.8292 39.0646L44.8812 38.9775L47.2066 40.281L51.7219 42.8147C51.8914 43.2484 52.012 43.6987 52.0815 44.1578Z" fill="#18A5FF"/>
<path d="M24.2655 27.4106L24.2197 27.4878L23.8123 28.1806L23.7603 28.2677L21.4369 26.9643L16.5845 24.2415C16.5631 23.8456 16.5488 23.4597 16.5488 23.0786L21.9564 26.1131L24.2655 27.4106Z" fill="#18A5FF"/>
<path d="M51.5348 42.3316L47.2059 40.2809L44.7939 39.1378L44.8306 39.0646L45.1973 38.3361L45.2411 38.249L47.6419 39.3872L50.9553 40.9569C51.1519 41.4379 51.3546 41.8902 51.5348 42.3316Z" fill="#18A5FF"/>
<path d="M23.8445 28.1076L23.8079 28.1809L23.4412 28.9093L23.3974 28.9964L20.9966 27.8582L16.6799 25.8135C16.6544 25.4294 16.6269 25.0504 16.6035 24.6763L21.4366 26.9645L23.8445 28.1076Z" fill="#18A5FF"/>
<path d="M50.8312 40.6385L47.6441 39.3874L45.1689 38.4145L45.2015 38.3364L45.5163 37.5812L45.5509 37.4971L48.0413 38.4749L50.4309 39.4132C50.5431 39.8279 50.6767 40.2368 50.8312 40.6385Z" fill="#18A5FF"/>
<path d="M23.4736 28.8322L23.441 28.9104L23.1262 29.6655L23.0916 29.7497L20.6012 28.7718L16.7612 27.2645C16.7469 26.8973 16.7266 26.5341 16.7031 26.1758L20.9964 27.8583L23.4736 28.8322Z" fill="#18A5FF"/>
<path d="M50.3797 39.2132L48.037 38.4749L45.4824 37.6683L45.512 37.5812L45.7656 36.8201L45.7972 36.7271L48.3436 37.5307L50.177 38.1097C50.2213 38.4812 50.289 38.8498 50.3797 39.2132Z" fill="#18A5FF"/>
<path d="M23.1559 29.5771L23.1263 29.6642L22.8727 30.4253L22.8411 30.5183L20.2947 29.7147L16.7786 28.6042C16.7847 28.2538 16.7786 27.9114 16.7715 27.562L20.6013 28.7705L23.1559 29.5771Z" fill="#18A5FF"/>
<path d="M50.1607 37.9708L48.3405 37.5304L45.7441 36.9009L45.7645 36.8198L45.9682 36.028L45.9906 35.9419L48.5829 36.5694L50.1158 36.9415C50.1108 37.2852 50.1258 37.6288 50.1607 37.9708Z" fill="#18A5FF"/>
<path d="M22.8928 30.3444L22.8724 30.4256L22.6687 31.2174L22.6463 31.3035L20.054 30.676L16.708 29.8654C16.7406 29.5279 16.761 29.1934 16.7722 28.8608L20.2964 29.714L22.8928 30.3444Z" fill="#18A5FF"/>
<path d="M50.1862 35.8394C50.1536 36.162 50.1312 36.4787 50.122 36.7895C50.122 36.8033 50.122 36.8182 50.122 36.832L48.587 36.5688L45.9561 36.1185L45.9724 36.0274L46.116 35.2406L46.1333 35.1416L48.7612 35.5919L50.1862 35.8394Z" fill="#18A5FF"/>
<path d="M22.6851 31.1274L22.6688 31.2185L22.5252 32.0053L22.5079 32.1043L19.88 31.6539L16.5391 31.0819C16.6002 30.7533 16.6481 30.4267 16.6847 30.1021L20.0541 30.6801L22.6851 31.1274Z" fill="#18A5FF"/>
<path d="M50.3295 34.7605C50.2765 35.092 50.2276 35.4196 50.196 35.7413L48.7599 35.5948L46.1055 35.3236L46.1146 35.2405L46.2022 34.4319L46.2124 34.3398L48.876 34.612L50.3295 34.7605Z" fill="#18A5FF"/>
<path d="M22.5339 31.9218L22.5248 32.0049L22.4372 32.8135L22.427 32.9056L19.7634 32.6334L16.2412 32.2741C16.338 31.9594 16.4225 31.6367 16.4908 31.3052L19.8775 31.6506L22.5339 31.9218Z" fill="#18A5FF"/>
<path d="M50.5261 33.6816C50.4599 34.0132 50.3998 34.3418 50.3468 34.6654L48.877 34.6159L46.2002 34.5249V34.4358L46.2297 33.6272V33.5361L48.8984 33.6272L50.5261 33.6816Z" fill="#18A5FF"/>
<path d="M22.4406 32.7245V32.8136L22.4111 33.6232V33.7132L19.7424 33.6232L15.8066 33.4896C15.9401 33.1719 16.0633 32.8462 16.1733 32.5117L19.7699 32.6335L22.4406 32.7245Z" fill="#18A5FF"/>
<path d="M50.7601 32.5698C50.6861 32.9057 50.6151 33.2379 50.5472 33.5665L48.9042 33.6229L46.2356 33.713V33.6229L46.2061 32.8133V32.7242L48.8829 32.6332L50.7601 32.5698Z" fill="#18A5FF"/>
<path d="M22.4404 34.5209L19.7636 34.612L15.1943 34.7703C15.3655 34.4427 15.5294 34.1082 15.6832 33.7638L19.7361 33.6272L22.4048 33.5361V33.6272L22.4343 34.4358L22.4404 34.5209Z" fill="#18A5FF"/>
<path d="M51.0211 31.4204C50.9416 31.7622 50.8642 32.1017 50.7889 32.4388L48.876 32.6368L46.2124 32.909L46.2022 32.8169L46.1146 32.0083L46.1055 31.9252L48.7599 31.654L51.0211 31.4204Z" fill="#18A5FF"/>
<path d="M22.5341 35.3236L19.8797 35.5948L14.415 36.1559C14.6188 35.8125 14.8225 35.4631 15.018 35.0989L19.7636 34.6149L22.4271 34.3428L22.4373 34.4348L22.5249 35.2434L22.5341 35.3236Z" fill="#18A5FF"/>
<path d="M51.2965 30.2114C51.2177 30.5611 51.1382 30.9095 51.0581 31.2566L48.7602 31.6525L46.1323 32.0978L46.115 31.9989L45.9714 31.212L45.9551 31.121L48.586 30.6707L51.2965 30.2114Z" fill="#18A5FF"/>
<path d="M22.6858 36.1184L20.0548 36.5687L13.4922 37.6941C13.7081 37.3279 13.9363 36.9557 14.1655 36.5737L19.8817 35.5949L22.5096 35.1445L22.5269 35.2435L22.6705 36.0303L22.6858 36.1184Z" fill="#18A5FF"/>
<path d="M51.5692 28.9312C51.4979 29.2894 51.4205 29.6477 51.3411 30.006L48.5858 30.6741L45.9936 31.3065L45.9712 31.2204L45.7674 30.4286L45.7471 30.3474L48.3434 29.718L51.5692 28.9312Z" fill="#18A5FF"/>
<path d="M22.8923 36.901L20.296 37.5304L12.5742 39.4C12.7474 39.016 12.9511 38.629 13.1731 38.2351L20.0495 36.5684L22.6418 35.9409L22.6642 36.027L22.8679 36.8188L22.8923 36.901Z" fill="#18A5FF"/>
<path d="M51.8159 27.5791C51.7578 27.9443 51.6916 28.3125 51.6203 28.6807L48.3436 29.7149L45.7972 30.5186L45.7656 30.4255L45.512 29.6644L45.4824 29.5774L48.037 28.7707L51.8159 27.5791Z" fill="#18A5FF"/>
<path d="M23.1552 37.6683L20.6006 38.4749L12.0283 41.1808C12.0841 40.7956 12.18 40.4169 12.3145 40.0505L20.2961 37.5307L22.8425 36.7271L22.8741 36.8201L23.1277 37.5812L23.1552 37.6683Z" fill="#18A5FF"/>
<path d="M51.9934 26.1509C51.9594 26.5224 51.9153 26.8955 51.861 27.2703L48.0372 28.7707L45.5468 29.7485L45.5122 29.6644L45.1975 28.9092L45.1689 28.832L47.6461 27.8591L51.9934 26.1509Z" fill="#18A5FF"/>
<path d="M23.4736 38.4145L20.9965 39.3874L12.142 42.8634C12.0475 42.5351 11.9961 42.1966 11.9893 41.8558L20.6013 38.4749L23.0917 37.4971L23.1263 37.5812L23.441 38.3364L23.4736 38.4145Z" fill="#18A5FF"/>
<path d="M52.0246 25.7829L47.6448 27.8613L45.244 28.9995L45.2002 28.9124L44.8335 28.184L44.7969 28.1107L47.2068 26.9646L52.0532 24.6675C52.0613 25.0347 52.0501 25.4068 52.0246 25.7829Z" fill="#18A5FF"/>
<path d="M23.8443 39.1377L21.4364 40.2809L12.8743 44.3387C12.6801 44.0678 12.5117 43.7802 12.3711 43.4796L20.9984 39.3921L23.3992 38.2539L23.443 38.341L23.8096 39.0694L23.8443 39.1377Z" fill="#18A5FF"/>
<path d="M52.0426 24.2527L47.2064 26.9645L44.8851 28.268L44.8331 28.1809L44.4257 27.4881L44.3799 27.4109L46.6931 26.1133L51.9356 23.1719C51.991 23.53 52.0267 23.8908 52.0426 24.2527Z" fill="#18A5FF"/>
<path d="M24.2648 39.8346L21.9517 41.1322L13.9864 45.6008C13.8194 45.4464 13.6585 45.285 13.5047 45.1188C13.4242 45.0317 13.3468 44.9446 13.2734 44.8585L21.4363 40.281L23.7596 38.9775L23.8116 39.0646L24.219 39.7574L24.2648 39.8346Z" fill="#18A5FF"/>
<path d="M51.8501 22.7302L46.689 26.1131L44.4747 27.564L44.4217 27.4878L43.9593 26.8217L43.9053 26.7435L46.1298 25.2857L51.5639 21.7227C51.6825 22.0519 51.7782 22.3885 51.8501 22.7302Z" fill="#18A5FF"/>
<path d="M24.7356 40.5016L22.511 41.9595L15.3311 46.6646C15.0337 46.4667 14.7492 46.2552 14.4775 46.0302L21.9518 41.1321L24.1662 39.6812L24.2191 39.7574L24.6816 40.4234L24.7356 40.5016Z" fill="#18A5FF"/>
<path d="M51.3915 21.2912L46.1296 25.2858L44.015 26.8911L43.959 26.8218L43.4497 26.1854L43.3906 26.1112L45.5042 24.5068L50.9219 20.3936C51.1009 20.6812 51.2578 20.9812 51.3915 21.2912Z" fill="#18A5FF"/>
<path d="M25.2525 41.1344L23.139 42.7388L16.8239 47.53C16.4928 47.3657 16.171 47.1905 15.8613 47.0045L22.5065 41.9569L24.621 40.3516L24.6771 40.4208L25.1863 41.0572L25.2525 41.1344Z" fill="#18A5FF"/>
<path d="M50.6529 19.9995L45.5009 24.5067L43.5076 26.2506L43.4465 26.1852L42.8975 25.5914L42.8262 25.5142L44.8195 23.7703L50.0061 19.2314C50.2401 19.4723 50.4562 19.7289 50.6529 19.9995Z" fill="#18A5FF"/>
<path d="M25.8162 41.7309L23.8208 43.4797L18.399 48.2225C18.0472 48.0905 17.7036 47.9473 17.3682 47.7929L23.1394 42.7454L25.1327 41.0015L25.1938 41.0668L25.7428 41.6606L25.8162 41.7309Z" fill="#18A5FF"/>
<path d="M49.6674 18.8932L44.82 23.7706L42.956 25.6461L42.898 25.5916L42.2868 25.0186L42.2227 24.9582L44.0887 23.0778L48.9136 18.2222C49.1642 18.428 49.4155 18.6517 49.6674 18.8932Z" fill="#18A5FF"/>
<path d="M26.4177 42.2919L24.5516 44.1724L19.9905 48.7538C19.6279 48.6469 19.2707 48.5315 18.9189 48.4074L23.8213 43.4796L25.6853 41.5991L25.7434 41.6536L26.3545 42.2266L26.4177 42.2919Z" fill="#18A5FF"/>
<path d="M48.5378 17.9289L44.0897 23.0755L42.3632 25.0747L42.2879 25.0134L41.6584 24.4997L41.583 24.4384L43.3013 22.449L47.6944 17.3608C47.9861 17.535 48.2676 17.7246 48.5378 17.9289Z" fill="#18A5FF"/>
<path d="M27.0578 42.8019L25.3395 44.7913L21.5626 49.1658C21.1946 49.082 20.8306 48.9903 20.4707 48.8907L24.5511 44.1648L26.2776 42.1655L26.3529 42.2269L26.9824 42.7406L27.0578 42.8019Z" fill="#18A5FF"/>
<path d="M47.2792 17.1335L43.3068 22.4543L41.7352 24.5554L41.6639 24.505L40.9916 24.0299L40.9111 23.9735L42.4858 21.8674L46.3391 16.7139C46.6616 16.8336 46.9756 16.9738 47.2792 17.1335Z" fill="#18A5FF"/>
<path d="M27.7348 43.2719L26.1601 45.3781L23.0921 49.4815C22.7248 49.4155 22.3591 49.3429 21.9951 49.2637L25.3391 44.7912L26.9107 42.688L26.982 42.7385L27.6543 43.2135L27.7348 43.2719Z" fill="#18A5FF"/>
<path d="M45.8903 16.5643L42.4801 21.8673L41.0602 24.0753L40.9858 24.0298L40.2728 23.5993L40.1924 23.5508L41.6133 21.3417L44.8442 16.3179C45.1981 16.3775 45.5476 16.4598 45.8903 16.5643Z" fill="#18A5FF"/>
<path d="M28.445 43.6945L27.019 45.9036L24.5714 49.715C24.2068 49.6635 23.8428 49.6071 23.4795 49.5458L26.1614 45.3751L27.5813 43.167L27.6556 43.2125L28.3686 43.643L28.445 43.6945Z" fill="#18A5FF"/>
<path d="M44.4031 16.2516L41.6173 21.3417L40.3583 23.6418L40.2769 23.5993L39.5526 23.2242L39.46 23.1767L40.7138 20.8864L43.2928 16.1714C43.6641 16.1793 44.0347 16.206 44.4031 16.2516Z" fill="#18A5FF"/>
<path d="M29.1771 44.0736L27.9233 46.3638L25.988 49.8991C25.6284 49.8605 25.2678 49.8179 24.9062 49.7694L27.0188 45.9095L28.2777 43.6094L28.3592 43.6519L29.0834 44.027L29.1771 44.0736Z" fill="#18A5FF"/>
<path d="M42.8745 16.1685L40.7131 20.8865L39.6262 23.2569L39.5519 23.2242L38.7849 22.8936L38.6963 22.855L39.7851 20.4797L41.7388 16.217C42.1279 16.1863 42.5057 16.1704 42.8745 16.1685Z" fill="#18A5FF"/>
<path d="M29.9435 44.3916L28.8547 46.7669L27.3625 50.0221C27.009 49.9934 26.6495 49.9607 26.293 49.9231L27.9227 46.3601L29.0095 43.9897L29.0839 44.0224L29.8508 44.354L29.9435 44.3916Z" fill="#18A5FF"/>
<path d="M41.3721 16.2446L39.7862 20.4767L38.8695 22.9223L38.785 22.8926L38.0058 22.6165L37.9131 22.5838L38.8298 20.1432L40.2446 16.3664C40.6306 16.3179 41.0065 16.2763 41.3721 16.2446Z" fill="#18A5FF"/>
<path d="M30.7265 44.6613L29.8097 47.1019L28.6842 50.1107C28.3359 50.0909 27.9835 50.0675 27.627 50.0404L28.8492 46.7645L29.766 44.3188L29.8505 44.3485L30.6297 44.6247L30.7265 44.6613Z" fill="#18A5FF"/>
<path d="M39.9309 16.4062L38.8277 20.1434L38.0913 22.6405L38.0068 22.6168L37.1919 22.3911L37.1084 22.3674L37.8458 19.8693L38.8206 16.5656C39.2022 16.5082 39.5723 16.4551 39.9309 16.4062Z" fill="#18A5FF"/>
<path d="M31.5285 44.8781L30.791 47.3762L29.965 50.1761C29.6214 50.1629 29.273 50.1471 28.9199 50.1286L29.8132 47.1021L30.5496 44.605L30.6342 44.6287L31.449 44.8544L31.5285 44.8781Z" fill="#18A5FF"/>
<path d="M38.5643 16.605L37.8513 19.8711L37.2952 22.4127L37.1933 22.3929L36.3876 22.2256L36.2949 22.2068L36.8521 19.6583L37.4826 16.7772C37.8554 16.7158 38.2139 16.6584 38.5643 16.605Z" fill="#18A5FF"/>
<path d="M32.3431 45.0409L31.786 47.5894L31.2146 50.2102C30.875 50.2029 30.5301 50.193 30.1797 50.1805L30.7908 47.3736L31.347 44.832L31.4488 44.8518L32.2545 45.0191L32.3431 45.0409Z" fill="#18A5FF"/>
<path d="M37.2662 16.8096L36.8588 19.656L36.486 22.2362L36.3943 22.2234L35.5672 22.1115L35.4766 22.0987L35.8504 19.5165L36.2171 16.9778C36.5742 16.9217 36.924 16.8657 37.2662 16.8096Z" fill="#18A5FF"/>
<path d="M33.1682 45.1464L32.7944 47.7285L32.4369 50.2286C32.1048 50.2286 31.7616 50.2227 31.4102 50.2167L31.7901 47.589L32.1629 45.0088L32.2545 45.0217L33.0816 45.1335L33.1682 45.1464Z" fill="#18A5FF"/>
<path d="M36.0268 17.0078L35.8465 19.5168L35.6591 22.1178L35.5633 22.1118L34.7322 22.0554L34.6436 22.0495L34.83 19.4594L34.995 17.1672L36.0268 17.0078Z" fill="#18A5FF"/>
<path d="M33.9974 45.1962L33.811 47.7863L33.6348 50.2378C33.4912 50.2378 33.3476 50.2319 33.205 50.2319C33.0125 50.2319 32.8159 50.2319 32.6152 50.2319L32.7945 47.7309L32.9819 45.1299L33.0777 45.1358L33.9088 45.1922L33.9974 45.1962Z" fill="#18A5FF"/>
<path d="M34.7846 59.4874C34.699 59.4548 34.6135 59.4211 34.5289 59.3885C34.4444 59.3558 34.3578 59.3162 34.2733 59.2776L34.1592 45.1938H34.4138H34.6685L34.7846 59.4874Z" fill="#F7FAFF"/>
<path d="M34.481 22.0532H34.2263H33.9717L33.877 10.4427C33.9605 10.4289 34.046 10.417 34.1316 10.4071C34.2172 10.3972 34.3007 10.3863 34.3862 10.3794L34.481 22.0532Z" fill="#F7FAFF"/>
<path d="M36.6831 59.9247C36.5965 59.9168 36.511 59.9069 36.4254 59.896C36.3398 59.8851 36.2522 59.8722 36.1667 59.8584L34.9902 45.1739L35.2439 45.155L35.4975 45.1353L36.6831 59.9247Z" fill="#F7FAFF"/>
<path d="M33.6507 22.0709L33.3971 22.0897L33.1435 22.1095L32.2451 10.9009C32.3266 10.8672 32.4091 10.8342 32.4926 10.8019C32.5751 10.7712 32.6576 10.7435 32.7412 10.7168L33.6507 22.0709Z" fill="#F7FAFF"/>
<path d="M38.5898 59.8534C38.5053 59.8673 38.4208 59.8791 38.3372 59.89C38.2537 59.9009 38.1682 59.9108 38.0846 59.9187L35.8193 45.1006L36.0709 45.064L36.3225 45.0273L38.5898 59.8534Z" fill="#F7FAFF"/>
<path d="M32.8224 22.1441L32.5708 22.1807L32.3192 22.2173L30.7119 11.7094C30.7893 11.6589 30.8678 11.6104 30.9472 11.561C31.0267 11.5115 31.103 11.462 31.1825 11.4204L32.8224 22.1441Z" fill="#F7FAFF"/>
<path d="M40.4349 59.3786C40.3554 59.4063 40.275 59.433 40.1925 59.4597C40.11 59.4864 40.0305 59.5102 39.948 59.5339L36.6387 44.9711L36.8872 44.9177L37.1357 44.8643L40.4349 59.3786Z" fill="#F7FAFF"/>
<path d="M32.0022 22.2738L31.7537 22.3273L31.5051 22.3807L29.3203 12.7695C29.3926 12.7072 29.4649 12.6448 29.5393 12.5835C29.6137 12.5221 29.687 12.4617 29.7593 12.4023L32.0022 22.2738Z" fill="#F7FAFF"/>
<path d="M42.1807 58.6125C42.1063 58.654 42.0299 58.6956 41.9525 58.7352C41.8751 58.7748 41.8008 58.8144 41.7223 58.852L37.4443 44.786L37.6888 44.7158L37.9332 44.6465L42.1807 58.6125Z" fill="#F7FAFF"/>
<path d="M31.1932 22.4589L30.9487 22.5292L30.7043 22.5985L28.0723 13.9374L28.276 13.7394C28.3432 13.6731 28.4125 13.6068 28.4797 13.5415L31.1932 22.4589Z" fill="#F7FAFF"/>
<path d="M43.7434 57.4552C43.6793 57.5185 43.6131 57.5819 43.5397 57.6432C43.4664 57.7046 43.4063 57.763 43.336 57.8204L38.2432 44.5472L38.4815 44.4601L38.7199 44.374L43.7434 57.4552Z" fill="#F7FAFF"/>
<path d="M30.4006 22.6953L30.1623 22.7824L29.9239 22.8685L26.9375 15.0873L27.1331 14.8894L27.3286 14.6914L30.4006 22.6953Z" fill="#F7FAFF"/>
<path d="M44.9732 55.7898C44.9243 55.8819 44.8714 55.9719 44.8205 56.062C44.7695 56.1521 44.7186 56.2342 44.6616 56.3193L39.0156 44.2546L39.2479 44.1556L39.4791 44.0566L44.9732 55.7898Z" fill="#F7FAFF"/>
<path d="M29.6251 22.9925L29.1616 23.1974L25.8584 16.1396L26.054 15.9585L26.2465 15.7725L29.6251 22.9925Z" fill="#F7FAFF"/>
<path d="M45.8015 53.6913C45.7678 53.8031 45.7332 53.913 45.6996 54.0239C45.666 54.1347 45.6293 54.2416 45.5916 54.3495L39.7705 43.9099L40.2187 43.6743L45.8015 53.6913Z" fill="#F7FAFF"/>
<path d="M28.8724 23.3349L28.4243 23.5704L24.791 17.0541C24.8582 17.0016 24.9244 16.9492 24.9947 16.8947C25.065 16.8403 25.1271 16.7869 25.1934 16.7314L28.8724 23.3349Z" fill="#F7FAFF"/>
<path d="M46.3916 51.6043C46.36 51.7112 46.3295 51.8171 46.2989 51.924C46.2684 52.0309 46.2388 52.1397 46.2093 52.2476L40.4951 43.5163L40.708 43.3807L40.9229 43.248L46.3916 51.6043Z" fill="#F7FAFF"/>
<path d="M28.1475 23.7287L27.9326 23.8613L27.7177 23.994L23.6709 17.8102C23.7442 17.7676 23.8166 17.7241 23.8868 17.6795L23.9785 17.6231L24.1007 17.5449L28.1475 23.7287Z" fill="#F7FAFF"/>
<path d="M47.0026 49.8919C46.9618 49.979 46.9241 50.0671 46.8875 50.1562C46.8508 50.2453 46.8131 50.3373 46.7785 50.4294L41.1865 43.0737L41.3902 42.9263L41.594 42.7798L47.0026 49.8919Z" fill="#F7FAFF"/>
<path d="M27.452 24.1709L27.2483 24.3183L27.0446 24.4648L22.4824 18.4631L22.7085 18.3453C22.7849 18.3058 22.8603 18.2662 22.9347 18.2256L27.452 24.1709Z" fill="#F7FAFF"/>
<path d="M47.7675 48.5667C47.7155 48.6359 47.6656 48.7062 47.6187 48.7775C47.5688 48.8497 47.522 48.923 47.4772 48.9962L41.8506 42.5887L42.0441 42.4284L42.2376 42.2681L47.7675 48.5667Z" fill="#F7FAFF"/>
<path d="M26.79 24.6597L26.5965 24.8201L26.403 24.9804L21.2256 19.0806L21.4619 18.9678C21.5403 18.9302 21.6188 18.8926 21.6962 18.854L26.79 24.6597Z" fill="#F7FAFF"/>
<path d="M48.695 47.5068C48.6349 47.5642 48.5758 47.6236 48.5168 47.684C48.4577 47.7444 48.4007 47.8037 48.3436 47.8661L42.4746 42.0534L42.6569 41.8793L42.8382 41.7061L48.695 47.5068Z" fill="#F7FAFF"/>
<path d="M26.1654 25.1912L25.9831 25.3674L25.8018 25.5406L19.9043 19.7012L20.1477 19.5884L20.3912 19.4756L26.1654 25.1912Z" fill="#F7FAFF"/>
<path d="M49.7971 46.6187C49.7292 46.6662 49.6589 46.7157 49.5862 46.7672C49.517 46.8157 49.4477 46.8661 49.3825 46.9196L43.0674 41.4761L43.2365 41.291L43.4055 41.106L49.7971 46.6187Z" fill="#F7FAFF"/>
<path d="M25.5795 25.7637L25.4084 25.9507L25.2393 26.1358L18.5127 20.341L18.7622 20.2252L19.0118 20.1094L25.5795 25.7637Z" fill="#F7FAFF"/>
<path d="M51.1094 45.8489L50.8639 45.9785C50.7834 46.0211 50.7029 46.0656 50.6225 46.1102L43.6035 40.8646L43.7583 40.6667L43.9142 40.4688L51.1094 45.8489Z" fill="#F7FAFF"/>
<path d="M25.0376 26.377L24.8827 26.5749L24.7269 26.7729L17.0469 21.0374C17.1314 20.9959 17.217 20.9543 17.3015 20.9147L17.5562 20.793L25.0376 26.377Z" fill="#F7FAFF"/>
<path d="M52.6158 45.1135L52.353 45.2412L52.0892 45.3679L44.1006 40.2213L44.2422 40.0154L44.3827 39.8096L52.6158 45.1135Z" fill="#F7FAFF"/>
<path d="M24.5402 27.0236L24.3986 27.2304L24.258 27.4363L15.5156 21.8048L15.7692 21.6722L16.0269 21.5405L24.5402 27.0236Z" fill="#F7FAFF"/>
<path d="M54.1681 44.2712C54.0866 44.3227 54.0051 44.3702 53.9226 44.4207C53.8401 44.4712 53.7546 44.5196 53.6711 44.5672L44.5508 39.5433L44.6771 39.3276L44.8024 39.1128L54.1681 44.2712Z" fill="#F7FAFF"/>
<path d="M24.0901 27.7024L23.9648 27.9182L23.8395 28.1329L13.9492 22.6895C14.0307 22.639 14.1132 22.5905 14.1957 22.541L14.4473 22.3945L24.0901 27.7024Z" fill="#F7FAFF"/>
<path d="M55.5586 43.2101C55.4934 43.2735 55.4261 43.3329 55.3548 43.3922C55.2835 43.4516 55.2163 43.512 55.1511 43.5694L44.9512 38.8336L45.0612 38.6109L45.1712 38.3872L55.5586 43.2101Z" fill="#F7FAFF"/>
<path d="M23.6896 28.4111L23.5755 28.6337L23.4737 28.8574L12.415 23.7227C12.4891 23.6653 12.5644 23.6089 12.6412 23.5535C12.7165 23.4971 12.7939 23.4407 12.8724 23.3862L23.6896 28.4111Z" fill="#F7FAFF"/>
<path d="M56.6711 41.9326C56.6212 42.0038 56.5693 42.0721 56.5183 42.1394C56.4674 42.2067 56.4165 42.278 56.3584 42.3443L45.2998 38.1013L45.3935 37.8707L45.4862 37.6411L56.6711 41.9326Z" fill="#F7FAFF"/>
<path d="M23.3412 29.1433L23.2475 29.3739L23.1548 29.6036L11.0654 24.9657C11.1225 24.8994 11.1826 24.8331 11.2437 24.7678C11.3048 24.7024 11.3679 24.6381 11.4321 24.5698L23.3412 29.1433Z" fill="#F7FAFF"/>
<path d="M57.5385 40.4974C57.5019 40.5717 57.4621 40.6459 57.4224 40.7201C57.3827 40.7944 57.3419 40.8686 57.2992 40.9428L45.5938 37.3432L45.6712 37.1066L45.7476 36.8711L57.5385 40.4974Z" fill="#F7FAFF"/>
<path d="M23.0472 29.8985L22.9698 30.1351L22.8934 30.3706L10.1572 26.4563C10.1847 26.3791 10.2153 26.3019 10.2479 26.2257C10.2805 26.1495 10.3161 26.0742 10.3497 25.999L23.0472 29.8985Z" fill="#F7FAFF"/>
<path d="M58.1699 38.9526C58.1465 39.0318 58.121 39.11 58.0945 39.1891C58.068 39.2683 58.0405 39.3455 58.011 39.4237L45.834 36.5723L45.8931 36.3318L45.9532 36.0913L58.1699 38.9526Z" fill="#F7FAFF"/>
<path d="M22.8067 30.6725L22.7476 30.913L22.6875 31.1535L9.87695 28.1536C9.87695 28.0715 9.87695 27.9874 9.88918 27.9022C9.9014 27.8171 9.90038 27.7379 9.91057 27.6528L22.8067 30.6725Z" fill="#F7FAFF"/>
<path d="M58.4879 37.3213C58.4808 37.4035 58.4727 37.4866 58.4635 37.5688C58.4543 37.6509 58.4431 37.7321 58.4309 37.8142L46.0176 35.7853L46.0604 35.5408L46.1021 35.2974L58.4879 37.3213Z" fill="#F7FAFF"/>
<path d="M22.623 31.4591L22.5802 31.7036L22.5385 31.9471L10.1567 29.9201C10.1262 29.833 10.0977 29.7449 10.0722 29.6549C10.0467 29.5648 10.0233 29.4817 10.0029 29.3926L22.623 31.4591Z" fill="#F7FAFF"/>
<path d="M58.4865 36.1559L46.1445 34.987L46.169 34.7406L46.1934 34.4951L58.4254 35.6491C58.4387 35.7333 58.4509 35.8164 58.4601 35.9005C58.4692 35.9847 58.4794 36.0688 58.4865 36.1559Z" fill="#F7FAFF"/>
<path d="M22.4959 32.2579L22.4715 32.5043L22.4471 32.7498L11.1012 31.6789C11.0401 31.5908 10.98 31.5027 10.9229 31.4137C10.8659 31.3246 10.8089 31.2375 10.7549 31.1494L22.4959 32.2579Z" fill="#F7FAFF"/>
<path d="M58.1525 34.4961L46.2139 34.1824L46.22 33.9349L46.2271 33.6875L57.9743 33.9963C58.0079 34.0804 58.0385 34.1636 58.068 34.2467C58.0975 34.3298 58.126 34.413 58.1525 34.4961Z" fill="#F7FAFF"/>
<path d="M22.4259 33.0627L22.4198 33.3101L22.4126 33.5576L12.286 33.2913L12.0996 33.0389L11.9102 32.7905L22.4259 33.0627Z" fill="#F7FAFF"/>
<path d="M57.4655 32.9073L46.2255 33.3745L46.2143 33.127L46.2031 32.8806L57.1884 32.4233C57.2383 32.5045 57.2903 32.5847 57.333 32.6648C57.3758 32.745 57.4227 32.8271 57.4655 32.9073Z" fill="#F7FAFF"/>
<path d="M22.4373 34.364L13.2803 34.7451C13.2294 34.6639 13.1785 34.5828 13.1276 34.5046C13.0766 34.4264 13.0257 34.3423 12.9707 34.2631L22.4149 33.8672L22.4261 34.1146L22.4373 34.364Z" fill="#F7FAFF"/>
<path d="M56.5126 31.4329L46.1782 32.5691L46.1486 32.3226L46.1201 32.0772L56.1551 30.9746C56.2182 31.0508 56.2783 31.127 56.3374 31.2032C56.3965 31.2794 56.4555 31.3566 56.5126 31.4329Z" fill="#F7FAFF"/>
<path d="M22.5203 35.1657L14.0255 36.099C13.9867 36.0189 13.948 35.9407 13.9083 35.8635C13.8686 35.7863 13.8279 35.7041 13.7871 35.6269L22.4623 34.6738L22.4918 34.9203L22.5203 35.1657Z" fill="#F7FAFF"/>
<path d="M55.3941 30.0965L46.0732 31.7672L46.0273 31.5237L45.9805 31.2802L54.9836 29.667C55.0549 29.7383 55.1242 29.8095 55.1873 29.8808L55.3941 30.0965Z" fill="#F7FAFF"/>
<path d="M22.6592 35.9645L14.5769 37.4134C14.5473 37.3333 14.5168 37.2551 14.4872 37.1769C14.4577 37.0987 14.4261 37.0195 14.3945 36.9423L22.5665 35.4775L22.6124 35.721L22.6592 35.9645Z" fill="#F7FAFF"/>
<path d="M54.1945 28.9008L45.9115 30.9792L45.8484 30.7397L45.7842 30.5002L53.7535 28.5039L53.9765 28.7019C54.0509 28.7672 54.1232 28.8315 54.1945 28.9008Z" fill="#F7FAFF"/>
<path d="M22.856 36.7495L15.0191 38.7102L14.9427 38.4736L14.8633 38.2381L22.7246 36.2695L22.7878 36.509L22.856 36.7495Z" fill="#F7FAFF"/>
<path d="M52.9739 27.835L45.6932 30.1955L45.6127 29.961L45.5312 29.7264L52.5146 27.4629C52.593 27.5243 52.6694 27.5866 52.7458 27.648L52.9739 27.835Z" fill="#F7FAFF"/>
<path d="M23.109 37.5185L15.4269 40.0076L15.3536 39.7701L15.2803 39.5336L22.9471 37.0464L23.0275 37.281L23.109 37.5185Z" fill="#F7FAFF"/>
<path d="M51.8057 26.8701L45.4203 29.4335L45.3235 29.2049L45.2217 28.9763L51.3932 26.502C51.4604 26.5653 51.5266 26.6276 51.5969 26.689C51.6672 26.7504 51.7365 26.8088 51.8057 26.8701Z" fill="#F7FAFF"/>
<path d="M23.4155 38.2688L15.8343 41.3122C15.8088 41.232 15.7843 41.1528 15.7599 41.0737C15.7355 40.9945 15.71 40.9153 15.6855 40.8361L23.223 37.8115L23.3197 38.0401L23.4155 38.2688Z" fill="#F7FAFF"/>
<path d="M50.8107 25.9259L45.0914 28.6912L44.8633 28.2478L50.4461 25.5488C50.5062 25.6122 50.5652 25.6755 50.6253 25.7379C50.6854 25.8002 50.7486 25.8626 50.8107 25.9259Z" fill="#F7FAFF"/>
<path d="M23.7792 38.9971L16.2703 42.6274C16.2428 42.5482 16.2163 42.4691 16.1898 42.3899L16.1104 42.1514L23.553 38.5537L23.7792 38.9971Z" fill="#F7FAFF"/>
<path d="M49.939 24.9876L44.7117 27.9736L44.5824 27.7598L44.4561 27.545L49.609 24.6006L49.774 24.7936L49.939 24.9876Z" fill="#F7FAFF"/>
<path d="M24.1864 39.698L16.7437 43.9538C16.7131 43.8756 16.6826 43.7964 16.654 43.7183C16.6255 43.6401 16.595 43.5609 16.5654 43.4817L23.9287 39.2754L24.058 39.4892L24.1864 39.698Z" fill="#F7FAFF"/>
<path d="M49.1411 24.0414L44.2785 27.2827L44.1349 27.0788L43.9902 26.8749L48.8356 23.6484C48.8865 23.7147 48.9374 23.7801 48.9904 23.8464L49.1411 24.0414Z" fill="#F7FAFF"/>
<path d="M24.6485 40.3697L17.2965 45.2709L17.1946 45.0403C17.161 44.9631 17.1274 44.8849 17.0928 44.8067L24.3603 39.957L24.5039 40.1609L24.6485 40.3697Z" fill="#F7FAFF"/>
<path d="M48.3949 23.0783L43.8012 26.6225L43.6433 26.4245L43.4844 26.2266L48.0965 22.6636C48.1464 22.7309 48.1983 22.7982 48.2452 22.8615L48.3949 23.0783Z" fill="#F7FAFF"/>
<path d="M25.1557 41.0051L17.9504 46.5644C17.9086 46.4912 17.8679 46.4179 17.8282 46.3437C17.7874 46.2695 17.7487 46.1952 17.709 46.12L24.839 40.6191L24.9969 40.8121L25.1557 41.0051Z" fill="#F7FAFF"/>
<path d="M47.6722 22.0895L43.276 25.9969L43.1049 25.8148L42.9287 25.6317L47.3778 21.6777C47.4257 21.746 47.4736 21.8153 47.5225 21.8836L47.6722 22.0895Z" fill="#F7FAFF"/>
<path d="M25.7085 41.6133L18.7364 47.8109C18.6865 47.7426 18.6346 47.6733 18.5918 47.6041C18.549 47.5348 18.496 47.4645 18.4502 47.3942L25.3653 41.248L25.5364 41.4302L25.7085 41.6133Z" fill="#F7FAFF"/>
<path d="M46.9581 21.0632L42.7066 25.4091L42.5212 25.2379L42.3379 25.0706L46.6699 20.6426C46.7177 20.7138 46.7646 20.7841 46.8135 20.8544C46.8624 20.9246 46.9092 20.992 46.9581 21.0632Z" fill="#F7FAFF"/>
<path d="M26.3037 42.1769L19.683 48.9476C19.6249 48.8872 19.5669 48.8269 19.5108 48.7645C19.4548 48.7021 19.3978 48.6398 19.3428 48.5755L25.937 41.8354L26.1214 42.0067L26.3037 42.1769Z" fill="#F7FAFF"/>
<path d="M46.2346 19.9917L42.0962 24.8611L41.7061 24.5454L45.9474 19.5542C45.9953 19.6274 46.0431 19.7007 46.092 19.7739L46.2346 19.9917Z" fill="#F7FAFF"/>
<path d="M26.9376 42.6995L20.8007 49.9245C20.7324 49.876 20.6642 49.8255 20.597 49.774C20.5297 49.7226 20.4656 49.6701 20.4004 49.6167L26.5444 42.3867L26.74 42.5451L26.9376 42.6995Z" fill="#F7FAFF"/>
<path d="M45.4871 18.8629L41.4484 24.3549L41.2447 24.2104L41.041 24.0669L45.1978 18.4146L45.3455 18.6382L45.4871 18.8629Z" fill="#F7FAFF"/>
<path d="M27.6057 43.1827L22.0911 50.6818C22.0127 50.6462 21.9353 50.6095 21.8599 50.5709C21.7845 50.5323 21.7081 50.4937 21.6338 50.4532L27.1921 42.8857L27.3958 43.0302L27.6057 43.1827Z" fill="#F7FAFF"/>
<path d="M44.6976 17.6716L40.7659 23.894L40.549 23.7643L40.332 23.6357L44.389 17.2144C44.4409 17.2896 44.4908 17.3658 44.5438 17.442C44.5968 17.5182 44.6457 17.5944 44.6976 17.6716Z" fill="#F7FAFF"/>
<path d="M28.3089 43.6094L23.5104 51.2045C23.43 51.1738 23.3495 51.1441 23.267 51.1164C23.1845 51.0887 23.1081 51.062 23.0276 51.0372H23.0205L27.875 43.353L28.092 43.4827L28.3089 43.6094Z" fill="#F7FAFF"/>
<path d="M43.8449 16.4178L40.0528 23.4814L39.8267 23.3666L39.6016 23.2518L43.519 15.9556L43.682 16.1852L43.8449 16.4178Z" fill="#F7FAFF"/>
<path d="M29.0405 43.9933L24.8338 51.8299L24.6128 51.7072C24.5384 51.6676 24.4631 51.629 24.3877 51.5904L28.5893 43.7637L28.8154 43.8785L29.0405 43.9933Z" fill="#F7FAFF"/>
<path d="M42.9008 15.112L39.3103 23.1169L39.076 23.0179L38.8428 22.919L42.5493 14.6558L42.7256 14.8824L42.9008 15.112Z" fill="#F7FAFF"/>
<path d="M29.798 44.3258L26.0721 52.6326L25.8613 52.4861L25.6494 52.3396L29.3305 44.1318L29.5648 44.2308L29.798 44.3258Z" fill="#F7FAFF"/>
<path d="M41.837 13.7879L38.5491 22.8043L38.3097 22.7221L38.0693 22.639L41.4591 13.3623L41.6527 13.5741C41.7066 13.6454 41.7749 13.7176 41.837 13.7879Z" fill="#F7FAFF"/>
<path d="M30.5772 44.6057L27.2893 53.6033L27.0855 53.4281L26.8818 53.2559L30.0944 44.4404L30.3338 44.5226L30.5772 44.6057Z" fill="#F7FAFF"/>
<path d="M40.6239 12.5308L37.7566 22.5448L37.5111 22.4785L37.2656 22.4122L40.2011 12.1606C40.2724 12.22 40.3437 12.2804 40.414 12.3418C40.4843 12.4031 40.5546 12.4665 40.6239 12.5308Z" fill="#F7FAFF"/>
<path d="M31.3752 44.8324L28.5395 54.7366L28.3358 54.5386L28.127 54.3407L30.8893 44.6938L31.1348 44.7602L31.3752 44.8324Z" fill="#F7FAFF"/>
<path d="M39.2409 11.4563L36.9532 22.3432L36.7037 22.2937L36.4541 22.2442L38.7785 11.1841C38.8569 11.2266 38.9343 11.2702 39.0107 11.3157C39.0871 11.3612 39.1645 11.4127 39.2409 11.4563Z" fill="#F7FAFF"/>
<path d="M32.1865 45.0047L29.8733 56.0055L29.6574 55.7997L29.4404 55.5938L31.6874 44.9048L31.9369 44.9543L32.1865 45.0047Z" fill="#F7FAFF"/>
<path d="M37.6996 10.7196L36.1361 22.1875L35.8835 22.1549L35.6309 22.1222L37.2046 10.583C37.2881 10.6018 37.3706 10.6236 37.4531 10.6464C37.5356 10.6691 37.6181 10.6939 37.6996 10.7196Z" fill="#F7FAFF"/>
<path d="M33.0095 45.1224L31.3441 57.3356C31.2667 57.2712 31.1903 57.2049 31.1139 57.1376L30.8848 56.9397L32.5043 45.063L32.7569 45.0956L33.0095 45.1224Z" fill="#F7FAFF"/>
<path d="M36.0566 10.397L35.311 22.0926L35.0564 22.0767L34.8027 22.0619L35.5493 10.3584C35.6329 10.3584 35.7174 10.3683 35.803 10.3742C35.8885 10.3802 35.971 10.3881 36.0566 10.397Z" fill="#F7FAFF"/>
<path d="M33.8376 45.1825L32.984 58.5666C32.9015 58.5141 32.82 58.4597 32.7396 58.4043C32.6591 58.3488 32.5756 58.2924 32.4951 58.235L33.3293 45.1519L33.584 45.1677L33.8376 45.1825Z" fill="#F7FAFF"/>
<path d="M35.0303 60.107L34.8816 60.2169L34.7309 60.3228L34.4131 45.1909H34.5659H34.7187L35.0303 60.107Z" fill="#8C06B1"/>
<path d="M34.229 22.0542H34.0762H33.9234L33.5303 3.34245C33.5802 3.32662 33.6321 3.31177 33.682 3.29792L33.7045 3.29099L33.8338 3.25635L34.229 22.0542Z" fill="#8C06B1"/>
<path d="M36.8169 58.7856L36.6743 58.8945L36.5307 59.0024L35.2412 45.1561L35.393 45.1432L35.5458 45.1294L36.8169 58.7856Z" fill="#8C06B1"/>
<path d="M33.3986 22.0888L33.2509 22.1016L33.0982 22.1145L31.4521 4.47863C31.4858 4.44893 31.5204 4.42023 31.554 4.39252L31.5927 4.36184C31.6396 4.32423 31.6874 4.28662 31.7363 4.25L33.3986 22.0888Z" fill="#8C06B1"/>
<path d="M38.4529 57.5693C38.4061 57.6019 38.3602 57.6356 38.3144 57.6682L38.1769 57.7672L36.0664 45.0631L36.2172 45.0394L36.3679 45.0156L38.4529 57.5693Z" fill="#8C06B1"/>
<path d="M32.573 22.1788L32.2674 22.2263L29.667 6.54813L29.6904 6.51448L29.7923 6.37097L29.9176 6.19678L32.573 22.1788Z" fill="#8C06B1"/>
<path d="M39.9884 56.5065L39.9395 56.5382L39.8529 56.5956L39.7175 56.6857L36.8838 44.9199L37.0325 44.8862L37.1812 44.8516L39.9884 56.5065Z" fill="#8C06B1"/>
<path d="M31.7558 22.325L31.6071 22.3587L31.4584 22.3933L28.1582 8.70841L28.2774 8.54807C28.31 8.50155 28.3436 8.45603 28.3792 8.40951L28.3965 8.38477L31.7558 22.325Z" fill="#8C06B1"/>
<path d="M41.4684 55.6L41.3716 55.6554L41.3329 55.6772L41.1964 55.7524L37.6885 44.718L37.8341 44.6744L37.9808 44.6309L41.4684 55.6Z" fill="#8C06B1"/>
<path d="M30.9519 22.5273L30.8063 22.5709L30.6596 22.6144L26.7666 10.3735C26.8084 10.3319 26.8481 10.2894 26.8868 10.2468L26.9387 10.1914C26.9611 10.1667 26.9846 10.1429 27.006 10.1182L30.9519 22.5273Z" fill="#8C06B1"/>
<path d="M42.9399 54.8386L42.8045 54.902L42.667 54.9693L38.4766 44.4624L38.6192 44.4089L38.7618 44.3555L42.9399 54.8386Z" fill="#8C06B1"/>
<path d="M30.1629 22.7825L30.0203 22.8359L29.8777 22.8894L25.3848 11.6164C25.4265 11.5838 25.4683 11.5511 25.509 11.5174L25.5253 11.5046L25.6333 11.4175L30.1629 22.7825Z" fill="#8C06B1"/>
<path d="M44.449 54.2151L44.3044 54.2665L44.286 54.2734C44.2443 54.2883 44.2035 54.3041 44.1618 54.321L39.2451 44.1545L39.3836 44.0912L39.5222 44.0278L44.449 54.2151Z" fill="#8C06B1"/>
<path d="M29.3955 23.0912L29.257 23.1545L29.1185 23.2178L23.9727 12.5753L24.0898 12.5051L24.103 12.4972L24.1825 12.4487L24.2334 12.417L29.3955 23.0912Z" fill="#8C06B1"/>
<path d="M46.0467 53.7312L45.8949 53.7708L45.8695 53.7777L45.7432 53.8114L39.9893 43.7954L40.1227 43.7231L40.2561 43.6509L46.0467 53.7312Z" fill="#8C06B1"/>
<path d="M28.6508 23.4498L28.5173 23.5221L28.3839 23.5943L22.5088 13.3685L22.6106 13.318L22.6453 13.3002L22.7807 13.2319L28.6508 23.4498Z" fill="#8C06B1"/>
<path d="M47.7882 53.3767L47.6242 53.4044H47.612L47.4613 53.4312L40.7051 43.3864L40.8334 43.3043L40.9607 43.2231L47.7882 53.3767Z" fill="#8C06B1"/>
<path d="M27.935 23.8583L27.8066 23.9405L27.6793 24.0216L20.9873 14.0729C21.0179 14.061 21.0474 14.0472 21.078 14.0343L21.1279 14.0125L21.2674 13.9502L27.935 23.8583Z" fill="#8C06B1"/>
<path d="M49.7276 53.1223L49.5769 53.1371H49.5494L49.3732 53.156L41.3906 42.9291L41.5118 42.8401L41.6341 42.75L49.7276 53.1223Z" fill="#8C06B1"/>
<path d="M27.2489 24.3155L27.1277 24.4046L27.0055 24.4946L19.3906 14.7359L19.4782 14.7013L19.5373 14.6775C19.5862 14.6578 19.6341 14.6389 19.6819 14.6182L27.2489 24.3155Z" fill="#8C06B1"/>
<path d="M51.9211 52.9536L51.8315 52.9596L51.7296 52.9655L51.5371 52.9784L42.042 42.4279L42.1571 42.329L42.2722 42.23L51.9211 52.9536Z" fill="#8C06B1"/>
<path d="M26.598 24.8173L26.4829 24.9162L26.3678 25.0152L17.71 15.3941L17.8006 15.3595L17.8597 15.3367L18.0104 15.2783L26.598 24.8173Z" fill="#8C06B1"/>
<path d="M54.3801 52.7899L54.1764 52.8058L53.9726 52.8206L42.6543 41.8832L42.7623 41.7773L42.8702 41.6724L54.3801 52.7899Z" fill="#8C06B1"/>
<path d="M25.985 25.362L25.877 25.4669L25.769 25.5718L15.9307 16.0704L16.0325 16.0308L16.0845 16.011L16.2403 15.9517L25.985 25.362Z" fill="#8C06B1"/>
<path d="M56.9691 52.4426C56.9069 52.4565 56.8448 52.4694 56.7817 52.4812C56.7185 52.4931 56.6554 52.506 56.5912 52.5169L43.2275 41.3023L43.3294 41.1905L43.4313 41.0776L56.9691 52.4426Z" fill="#8C06B1"/>
<path d="M25.4086 25.9475L25.3067 26.0593L25.2049 26.1722L14.0566 16.8054L14.1778 16.7559L14.2135 16.7411L14.3714 16.6777L25.4086 25.9475Z" fill="#8C06B1"/>
<path d="M59.3196 51.6293C59.2707 51.656 59.2177 51.6817 59.1709 51.7065C59.124 51.7312 59.069 51.757 59.0181 51.7807L43.7568 40.675L43.8485 40.5563L43.9402 40.4375L59.3196 51.6293Z" fill="#8C06B1"/>
<path d="M24.8826 26.5703L24.7909 26.6891L24.6992 26.8079L12.1016 17.6401C12.1494 17.6173 12.1973 17.5955 12.2462 17.5747L12.2584 17.5688L12.4163 17.4985L24.8826 26.5703Z" fill="#8C06B1"/>
<path d="M61.067 50.2146C61.0344 50.2532 61.0018 50.2908 60.9651 50.3284C60.9284 50.3661 60.8989 50.4046 60.8633 50.4413L44.2412 40.0155L44.4062 39.7661L61.067 50.2146Z" fill="#8C06B1"/>
<path d="M24.399 27.2265L24.3165 27.3512L24.234 27.4759L10.1074 18.6198L10.2602 18.5397L10.2765 18.5307L10.414 18.4585L24.399 27.2265Z" fill="#8C06B1"/>
<path d="M62.1636 48.345C62.1453 48.3915 62.1269 48.438 62.1066 48.4836C62.0862 48.5291 62.0669 48.5756 62.0465 48.6211L44.6758 39.3306L44.7491 39.2L44.8225 39.0703L62.1636 48.345Z" fill="#8C06B1"/>
<path d="M23.9644 27.9142L23.891 28.0448L23.8177 28.1745L8.1582 19.7994L8.29775 19.7005L8.3446 19.6688C8.37618 19.648 8.40775 19.6262 8.44035 19.6064L23.9644 27.9142Z" fill="#8C06B1"/>
<path d="M62.7684 46.2511C62.7592 46.3016 62.749 46.3501 62.7388 46.4016L62.7083 46.551L45.0605 38.6144L45.1247 38.4798L45.1889 38.3452L62.7684 46.2511Z" fill="#8C06B1"/>
<path d="M23.5806 28.6337L23.4522 28.9029L6.37793 21.2226C6.41664 21.185 6.45636 21.1484 6.49608 21.1128L6.56331 21.0514C6.58164 21.0356 6.59896 21.0188 6.61729 21.0039L23.5806 28.6337Z" fill="#8C06B1"/>
<path d="M62.9996 44.0655C62.9996 44.118 62.9996 44.1704 62.9996 44.2229C62.9996 44.2753 62.9996 44.3268 62.9915 44.3783L45.3916 37.8748L45.4466 37.7352L45.5006 37.5967L62.9996 44.0655Z" fill="#8C06B1"/>
<path d="M23.2476 29.37L23.1926 29.5096L23.1387 29.6481L4.90625 22.9081C4.93477 22.8656 4.96533 22.824 4.99588 22.7824C5.02644 22.7409 5.04376 22.7161 5.0682 22.6834L5.08756 22.6577L23.2476 29.37Z" fill="#8C06B1"/>
<path d="M62.9469 42.1929L45.6709 37.1156L45.7147 36.9731L45.7585 36.8315L62.9194 41.8742C62.9245 41.9276 62.9285 41.9801 62.9336 42.0335C62.9387 42.087 62.9428 42.1384 62.9469 42.1929Z" fill="#8C06B1"/>
<path d="M22.9686 30.1313L22.9248 30.2739L22.881 30.4154L3.8623 24.8264C3.88166 24.7799 3.90101 24.7334 3.91934 24.6869L3.97944 24.5503L22.9686 30.1313Z" fill="#8C06B1"/>
<path d="M62.6521 40.0444L45.8926 36.3359L45.9272 36.1914L45.9608 36.0459L62.5859 39.7257C62.5981 39.7791 62.6083 39.8326 62.6185 39.886C62.6287 39.9395 62.643 39.9919 62.6521 40.0444Z" fill="#8C06B1"/>
<path d="M22.7474 30.9102L22.6792 31.2002L3.27441 26.9048C3.27441 26.9048 3.27441 26.8978 3.27441 26.8939C3.28358 26.8493 3.29275 26.8038 3.3009 26.7583L3.33145 26.6128L22.7474 30.9102Z" fill="#8C06B1"/>
<path d="M62.1693 37.9767L46.0596 35.5449L46.083 35.3975L46.1064 35.251L62.0766 37.6619C62.0919 37.7144 62.1071 37.7669 62.1214 37.8193C62.1357 37.8718 62.155 37.9242 62.1693 37.9767Z" fill="#8C06B1"/>
<path d="M22.58 31.7019L22.5565 31.8494L22.5331 31.9958L3 29.0455C3 29.0326 3 29.0187 3 29.0059C3 28.9702 3 28.9336 3.00713 28.897C3.01426 28.8604 3.01324 28.798 3.01833 28.7476L22.58 31.7019Z" fill="#8C06B1"/>
<path d="M61.5542 36.0071L46.1738 34.7442L46.1871 34.5957L46.2003 34.4482L61.4452 35.7002C61.4646 35.7517 61.4829 35.7992 61.5013 35.8537C61.5196 35.9081 61.5369 35.9576 61.5542 36.0071Z" fill="#8C06B1"/>
<path d="M22.4713 32.5007L22.458 32.6492L22.4448 32.7966L3.07565 31.2071C3.07565 31.1844 3.06954 31.1606 3.06648 31.1378L3.05731 31.0577C3.0512 31.0072 3.04611 30.9587 3.04102 30.9062L22.4713 32.5007Z" fill="#8C06B1"/>
<path d="M60.8464 34.1444L46.2207 33.9385V33.7901V33.6416L60.719 33.8455C60.7404 33.895 60.7608 33.9445 60.7812 33.9949L60.8464 34.1444Z" fill="#8C06B1"/>
<path d="M22.4198 33.3063V33.4548V33.6032L3.57829 33.339L3.54468 33.24C3.53857 33.2222 3.53246 33.2054 3.52737 33.1875C3.51107 33.138 3.49477 33.0886 3.47949 33.0381L22.4198 33.3063Z" fill="#8C06B1"/>
<path d="M60.0814 32.3847L46.2156 33.131L46.2074 32.9825L46.1982 32.8341L59.9489 32.0938C59.9724 32.1422 59.9948 32.1927 60.0172 32.2392C60.0396 32.2858 60.06 32.3362 60.0814 32.3847Z" fill="#8C06B1"/>
<path d="M22.4423 34.4107L4.51547 35.3757L4.44824 35.2579L4.43296 35.2312L4.35352 35.0857L22.4219 34.1138L22.4301 34.2622L22.4423 34.4107Z" fill="#8C06B1"/>
<path d="M59.2773 30.721L46.151 32.3254L46.1317 32.1789L46.1123 32.0314L59.1347 30.439C59.1592 30.4855 59.1826 30.533 59.206 30.5805C59.2294 30.628 59.2549 30.6745 59.2773 30.721Z" fill="#8C06B1"/>
<path d="M22.5271 35.2133L5.78184 37.2611L5.67998 37.1275C5.64535 37.0809 5.61072 37.0354 5.57812 36.9899L22.4864 34.9233L22.5057 35.0698L22.5271 35.2133Z" fill="#8C06B1"/>
<path d="M58.4505 29.1433L46.0239 31.5265L45.9944 31.381L45.9648 31.2356L58.2967 28.8701C58.3221 28.9156 58.3476 28.9612 58.372 29.0067C58.3965 29.0522 58.426 29.0978 58.4505 29.1433Z" fill="#8C06B1"/>
<path d="M22.6709 36.0092L7.20183 38.9784C7.16415 38.9359 7.12646 38.8923 7.08775 38.8497L7.07451 38.828L6.97266 38.7181L22.6087 35.7183L22.6383 35.8638L22.6709 36.0092Z" fill="#8C06B1"/>
<path d="M57.6114 27.6442L45.85 30.7391L45.7705 30.4521L57.4545 27.374C57.482 27.4186 57.5075 27.4621 57.533 27.5066L57.6114 27.6442Z" fill="#8C06B1"/>
<path d="M22.8699 36.7929L8.6395 40.542L8.52237 40.4192L8.48264 40.3767L8.40625 40.2955L22.7905 36.5059L22.8302 36.6494L22.8699 36.7929Z" fill="#8C06B1"/>
<path d="M56.7556 26.2002L45.6145 29.9612L45.5646 29.8216L45.5146 29.6811L56.5967 25.9399C56.6242 25.9835 56.6507 26.027 56.6772 26.0706C56.7036 26.1141 56.7291 26.1597 56.7556 26.2002Z" fill="#8C06B1"/>
<path d="M23.1258 37.5609L10.028 41.9859L9.91295 41.8671L9.84674 41.7988L9.79785 41.7484L23.025 37.2808L23.0749 37.4203L23.1258 37.5609Z" fill="#8C06B1"/>
<path d="M55.895 24.8115L45.3243 29.2078L45.2642 29.0713L45.2041 28.9347L55.732 24.5571C55.7595 24.5987 55.787 24.6413 55.8135 24.6838L55.895 24.8115Z" fill="#8C06B1"/>
<path d="M23.4357 38.3103L11.3422 43.3391L11.2312 43.2243L11.1354 43.1253L11.1191 43.1085L23.3155 38.0361L23.3756 38.1727L23.4357 38.3103Z" fill="#8C06B1"/>
<path d="M55.0224 23.4633L44.9804 28.4723L44.9111 28.3407L44.8408 28.208L54.8574 23.2119L54.9399 23.3386L55.0224 23.4633Z" fill="#8C06B1"/>
<path d="M23.7994 39.0367L12.585 44.6296C12.5493 44.592 12.5137 44.5554 12.4831 44.5178L12.3711 44.404L23.6619 38.7725L23.7312 38.9041L23.7994 39.0367Z" fill="#8C06B1"/>
<path d="M54.1429 22.1454L44.5856 27.7631L44.5062 27.6354L44.4277 27.5087L53.9728 21.8979L54.0573 22.0207L54.1429 22.1454Z" fill="#8C06B1"/>
<path d="M24.2129 39.7368L13.7634 45.879C13.7502 45.8661 13.7379 45.8523 13.7257 45.8394L13.6585 45.7672L13.5566 45.6553L24.0571 39.4824L24.1365 39.6101L24.2129 39.7368Z" fill="#8C06B1"/>
<path d="M53.2482 20.8446L44.1391 27.0799L43.9629 26.8374L53.0801 20.5952C53.1076 20.6368 53.1351 20.6784 53.1636 20.7189C53.1922 20.7595 53.2156 20.8031 53.2482 20.8446Z" fill="#8C06B1"/>
<path d="M24.6771 40.4114L14.8733 47.1237L14.8041 47.0386L14.7786 47.0079L14.6768 46.8921L24.4968 40.1689L24.5844 40.2907L24.6771 40.4114Z" fill="#8C06B1"/>
<path d="M52.4004 19.5025L43.6488 26.4306L43.5521 26.3148L43.4502 26.2L52.2435 19.2393C52.268 19.2838 52.2934 19.3273 52.3189 19.3709L52.4004 19.5025Z" fill="#8C06B1"/>
<path d="M25.1876 41.0441L15.8279 48.4532C15.8025 48.4106 15.775 48.368 15.7475 48.3255L15.7373 48.3087L15.667 48.1978L24.994 40.8135L25.0908 40.9293L25.1876 41.0441Z" fill="#8C06B1"/>
<path d="M51.605 18.0706L43.107 25.8171L43.0052 25.7083L42.9033 25.6004L51.4664 17.7944C51.4909 17.841 51.5143 17.8875 51.5388 17.933L51.605 18.0706Z" fill="#8C06B1"/>
<path d="M25.7425 41.6445L16.6008 49.978C16.5818 49.9285 16.5614 49.879 16.5397 49.8295C16.5275 49.7998 16.5153 49.7711 16.502 49.7414C16.4888 49.7117 16.4847 49.7028 16.4766 49.683L25.5327 41.4277L25.6345 41.5366L25.7425 41.6445Z" fill="#8C06B1"/>
<path d="M50.8324 16.5316L42.5239 25.2412L42.4118 25.1422L42.2998 25.0432L50.6928 16.2466C50.7152 16.2951 50.7387 16.3456 50.7621 16.3921L50.8324 16.5316Z" fill="#8C06B1"/>
<path d="M26.3399 42.2068L17.1585 51.8358C17.1473 51.7764 17.134 51.717 17.1208 51.6567C17.1075 51.5963 17.0953 51.5399 17.0811 51.4805L26.1209 42.0049L26.2329 42.1039L26.3399 42.2068Z" fill="#8C06B1"/>
<path d="M50.0469 14.8766L41.9034 24.7046L41.7842 24.6115L41.665 24.5185L49.9043 14.5708C49.9287 14.6213 49.9521 14.6698 49.9756 14.7222L50.0397 14.8588C50.0418 14.8638 50.0448 14.8677 50.0469 14.8766Z" fill="#8C06B1"/>
<path d="M26.9754 42.7266L17.4467 54.2301C17.4416 54.1589 17.4365 54.0866 17.4304 54.0134C17.4243 53.9402 17.4192 53.8699 17.4131 53.7976L26.733 42.5405L26.8522 42.6336L26.9754 42.7266Z" fill="#8C06B1"/>
<path d="M49.2069 13.0955L41.2447 24.212L41.1194 24.1279L40.9941 24.0428L49.0571 12.7837C49.0826 12.8352 49.107 12.8876 49.1315 12.9391C49.1478 12.9707 49.1631 13.0034 49.1783 13.0381C49.1936 13.0727 49.1977 13.0737 49.2069 13.0955Z" fill="#8C06B1"/>
<path d="M27.6495 43.2024L17.7887 56.9685C17.7724 56.9032 17.7572 56.8378 17.7439 56.7705C17.7307 56.7032 17.7144 56.6369 17.7021 56.5726L27.3959 43.0352L27.5212 43.1193L27.6495 43.2024Z" fill="#8C06B1"/>
<path d="M48.2634 11.2087L40.5508 23.7653L40.2891 23.6139L48.0974 10.9009C48.1259 10.9514 48.1534 10.9999 48.1809 11.0543L48.2115 11.1117L48.2634 11.2087Z" fill="#8C06B1"/>
<path d="M28.3504 43.6309L18.8216 59.1448C18.787 59.1023 18.7544 59.0587 18.7198 59.0152C18.6851 58.9716 18.6546 58.9261 18.624 58.8816L28.0886 43.4795L28.219 43.5557L28.3504 43.6309Z" fill="#8C06B1"/>
<path d="M47.1604 9.28369L39.8267 23.3675L39.6902 23.3002L39.5537 23.2329L46.9709 8.98975C47.0035 9.03824 47.0351 9.08872 47.0667 9.13623L47.0789 9.15503C47.1044 9.19759 47.1339 9.24015 47.1604 9.28369Z" fill="#8C06B1"/>
<path d="M29.0838 44.0121L20.4351 60.6276C20.3924 60.5979 20.3506 60.5692 20.3099 60.5385C20.2691 60.5078 20.2253 60.4781 20.1846 60.4484L28.8108 43.8755L29.0838 44.0121Z" fill="#8C06B1"/>
<path d="M45.8342 7.42729L39.079 23.0194L38.9385 22.962L38.7969 22.9036L45.6152 7.16699L45.717 7.28279C45.7211 7.28716 45.7248 7.29179 45.7282 7.29665L45.8342 7.42729Z" fill="#8C06B1"/>
<path d="M29.8419 44.3419L22.3248 61.6908L22.1873 61.6254L22.0498 61.5581L29.5597 44.2241L29.7003 44.2815L29.8419 44.3419Z" fill="#8C06B1"/>
<path d="M44.2522 5.78597L38.3069 22.7221L38.1622 22.6736L38.0176 22.6261L44.0007 5.57812C44.0282 5.59891 44.0546 5.62167 44.0811 5.64345L44.1259 5.68106C44.1677 5.7157 44.2095 5.75034 44.2522 5.78597Z" fill="#8C06B1"/>
<path d="M30.6222 44.619L24.3498 62.4924L24.2052 62.4449L24.0605 62.3974L30.3329 44.5229L30.4775 44.5714L30.6222 44.619Z" fill="#8C06B1"/>
<path d="M42.4183 4.49615L37.519 22.4784L37.3713 22.4398L37.2236 22.3983L42.1433 4.34473L42.1922 4.37046L42.2808 4.41797C42.3226 4.44568 42.3674 4.47042 42.4183 4.49615Z" fill="#8C06B1"/>
<path d="M31.4182 44.8423L26.4842 62.9612L26.3315 62.9414C26.2805 62.9355 26.2296 62.9275 26.1797 62.9206L31.1259 44.7661L31.2736 44.8047L31.4182 44.8423Z" fill="#8C06B1"/>
<path d="M40.3817 3.62323L36.7067 22.2884L36.557 22.2607L36.4072 22.233L40.0873 3.53613H40.0944L40.235 3.57671L40.3817 3.62323Z" fill="#8C06B1"/>
<path d="M32.2331 45.012L28.6987 62.9685L28.5398 62.9853L28.3809 63.0002L31.9336 44.9565L32.0834 44.9843L32.2331 45.012Z" fill="#8C06B1"/>
<path d="M38.2293 3.15331L35.8865 22.156L35.7348 22.1382L35.583 22.1204L37.9257 3.11768L38.0775 3.13648L38.2058 3.15331H38.2293Z" fill="#8C06B1"/>
<path d="M33.0553 45.1255L30.9225 62.4288L30.7615 62.4862L30.6006 62.5416L32.7518 45.0898L32.9036 45.1077L33.0553 45.1255Z" fill="#8C06B1"/>
<path d="M36.0301 3L35.0605 22.0769L34.9077 22.069L34.7549 22.0621L35.7235 3.00495H35.8773H36.0301V3Z" fill="#8C06B1"/>
<path d="M33.8859 45.1828L33.0608 61.4024L32.903 61.4935C32.851 61.5231 32.8011 61.5528 32.7461 61.5815L33.5803 45.168L33.7331 45.1759L33.8859 45.1828Z" fill="#8C06B1"/>
</g>
</g>
<defs>
<filter id="filter0_d_617_22587" x="0" y="0" width="66" height="66" filterUnits="userSpaceOnUse" color-interpolation-filters="sRGB">
<feFlood flood-opacity="0" result="BackgroundImageFix"/>
<feColorMatrix in="SourceAlpha" type="matrix" values="0 0 0 0 0 0 0 0 0 0 0 0 0 0 0 0 0 0 127 0" result="hardAlpha"/>
<feOffset/>
<feGaussianBlur stdDeviation="1.5"/>
<feColorMatrix type="matrix" values="0 0 0 0 0.750975 0 0 0 0 0 0 0 0 0 0.958333 0 0 0 1 0"/>
<feBlend mode="normal" in2="BackgroundImageFix" result="effect1_dropShadow_617_22587"/>
<feBlend mode="normal" in="SourceGraphic" in2="effect1_dropShadow_617_22587" result="shape"/>
</filter>
<clipPath id="clip0_617_22587">
<rect width="60" height="60" fill="white" transform="translate(3 3)"/>
</clipPath>
</defs>
</svg>
