<svg width="31" height="30" viewBox="0 0 31 30" fill="none" xmlns="http://www.w3.org/2000/svg">
<g filter="url(#filter0_b_421_38210)">
<path d="M30.1851 3.55359C29.3497 5.08333 28.3248 6.38735 27.1103 7.46567C27.1223 7.75487 27.1283 8.08174 27.1283 8.44628C27.1283 10.4717 26.8885 12.4996 26.4087 14.53C25.929 16.5604 25.1961 18.5038 24.2102 20.3603C23.2243 22.2168 22.0499 23.8614 20.687 25.2943C19.3242 26.7272 17.6859 27.8697 15.7723 28.7218C13.8587 29.5739 11.8078 30 9.61966 30C6.20469 30 3.05985 28.8651 0.18512 26.5952C0.69535 26.6651 1.1847 26.7001 1.65318 26.7001C4.50611 26.7001 7.05423 25.6183 9.29754 23.4548C7.96735 23.4247 6.77606 22.9206 5.72367 21.9425C4.67129 20.9643 3.94706 19.7145 3.551 18.1929C3.94248 18.2847 4.32887 18.3306 4.71015 18.3306C5.25898 18.3306 5.79902 18.2424 6.33028 18.0662C4.91071 17.7162 3.73306 16.8458 2.79732 15.455C1.86162 14.0642 1.39377 12.459 1.39377 10.6393V10.5455C2.2651 11.1394 3.19452 11.4554 4.18202 11.4933C3.34108 10.8031 2.67434 9.90314 2.1818 8.79332C1.68923 7.6835 1.44295 6.48248 1.44295 5.19027C1.44295 3.82741 1.72036 2.55833 2.27518 1.38303C3.81894 3.71517 5.68952 5.57908 7.88692 6.97478C10.0844 8.3705 12.4418 9.14564 14.9592 9.3002C14.8518 8.74934 14.7981 8.17449 14.7979 7.57565C14.7979 5.48474 15.3989 3.6994 16.601 2.21964C17.8032 0.739879 19.2535 0 20.952 0C22.7302 0 24.2281 0.797109 25.4455 2.39133C26.8365 2.05215 28.1389 1.43866 29.3527 0.550859C28.8851 2.36266 27.984 3.76034 26.6494 4.7439C27.876 4.56446 29.0545 4.16769 30.1851 3.55359H30.1851Z" fill="#F7FAFF"/>
</g>
<defs>
<filter id="filter0_b_421_38210" x="-19.8149" y="-20" width="70" height="70" filterUnits="userSpaceOnUse" color-interpolation-filters="sRGB">
<feFlood flood-opacity="0" result="BackgroundImageFix"/>
<feGaussianBlur in="BackgroundImageFix" stdDeviation="10"/>
<feComposite in2="SourceAlpha" operator="in" result="effect1_backgroundBlur_421_38210"/>
<feBlend mode="normal" in="SourceGraphic" in2="effect1_backgroundBlur_421_38210" result="shape"/>
</filter>
</defs>
</svg>
