<svg width="106" height="106" viewBox="0 0 106 106" fill="none" xmlns="http://www.w3.org/2000/svg">
<path d="M77.8281 65.37C84.6773 66.5199 92.2264 65.32 97.5257 61.7705C104.575 57.071 104.575 49.372 97.5257 44.6726C92.1764 41.123 84.5273 39.9232 77.6782 41.123M27.9844 65.37C21.1352 66.5199 13.5862 65.32 8.28684 61.7705C1.23772 57.071 1.23772 49.372 8.28684 44.6726C13.6362 41.123 21.2852 39.9232 28.1343 41.123M82.9775 28.9745C82.6775 28.9245 82.3276 28.9245 82.0276 28.9745C75.1285 28.7246 69.6292 23.0753 69.6292 16.0761C69.6292 8.92703 75.3784 3.17773 82.5276 3.17773C89.6767 3.17773 95.4259 8.97702 95.4259 16.0761C95.3759 23.0753 89.8766 28.7246 82.9775 28.9745ZM22.835 28.9745C23.135 28.9245 23.4849 28.9245 23.7849 28.9745C30.684 28.7246 36.1833 23.0753 36.1833 16.0761C36.1833 8.92703 30.4341 3.17773 23.285 3.17773C16.1359 3.17773 10.3866 8.97702 10.3866 16.0761C10.4366 23.0753 15.9359 28.7246 22.835 28.9745ZM52.9812 66.3199C52.6813 66.2699 52.3313 66.2699 52.0314 66.3199C45.1322 66.0699 39.6329 60.4206 39.6329 53.4215C39.6329 46.2724 45.3822 40.5231 52.5313 40.5231C59.6804 40.5231 65.4297 46.3224 65.4297 53.4215C65.3797 60.4206 59.8804 66.1199 52.9812 66.3199ZM38.4331 82.0679C31.3839 86.7673 31.3839 94.4663 38.4331 99.1657C46.4321 104.515 59.5304 104.515 67.5294 99.1657C74.5785 94.4663 74.5785 86.7673 67.5294 82.0679C59.5804 76.7685 46.4321 76.7685 38.4331 82.0679Z" stroke="#062147" stroke-width="5" stroke-linecap="round" stroke-linejoin="round"/>
</svg>
