<svg width="106" height="105" viewBox="0 0 106 105" fill="none" xmlns="http://www.w3.org/2000/svg">
<path d="M103 67.5C103 86.85 87.35 102.5 68 102.5L73.25 93.75M3 37.5C3 18.15 18.65 2.5 38 2.5L32.75 11.25M61.5 14.7501L81.4 26.25L101.1 14.8001M81.4 46.6V26.2M4.75003 69.7501L24.6 81.25L44.35 69.8001M24.6 101.6V81.2M76.7 3.55L64.7 10.1998C62 11.6998 59.75 15.4997 59.75 18.5997V31.2999C59.75 34.3999 61.95 38.1999 64.7 39.6999L76.7 46.35C79.25 47.8 83.45 47.8 86.05 46.35L98.05 39.6999C100.75 38.1999 103 34.3999 103 31.2999V18.5997C103 15.4997 100.8 11.6998 98.05 10.1998L86.05 3.55C83.5 2.15 79.3 2.15 76.7 3.55ZM19.95 58.55L7.95003 65.1998C5.25003 66.6998 3 70.4997 3 73.5997V86.2999C3 89.3999 5.20003 93.1999 7.95003 94.6999L19.95 101.35C22.5 102.8 26.7 102.8 29.3 101.35L41.3 94.6999C44 93.1999 46.25 89.3999 46.25 86.2999V73.5997C46.25 70.4997 44.05 66.6998 41.3 65.1998L29.3 58.55C26.7 57.15 22.5 57.15 19.95 58.55Z" stroke="#062147" stroke-width="5" stroke-linecap="round" stroke-linejoin="round"/>
</svg>
