<svg width="106" height="105" viewBox="0 0 106 105" fill="none" xmlns="http://www.w3.org/2000/svg">
<path d="M40.5 61.25C40.5 66.1 44.2501 70 48.8501 70H58.2499C62.2499 70 65.5 66.6 65.5 62.35C65.5 57.8 63.5 56.15 60.55 55.1L45.5 49.85C42.55 48.8 40.55 47.2 40.55 42.6C40.55 38.4 43.8 34.95 47.8 34.95H57.2C61.8 34.95 65.55 38.85 65.55 43.7M53 30V75M103 52.5C103 80.1 80.6 102.5 53 102.5C25.4 102.5 3 80.1 3 52.5C3 24.9 25.4 2.5 53 2.5M103 22.5V2.5M103 2.5H83M103 2.5L78 27.5" stroke="#062147" stroke-width="5" stroke-linecap="round" stroke-linejoin="round"/>
</svg>
