<svg width="100" height="106" viewBox="0 0 100 106" fill="none" xmlns="http://www.w3.org/2000/svg">
<path d="M50.442 32.6421L45.093 41.9402C43.8933 43.9898 44.8931 45.6895 47.2426 45.6895H53.5913C55.9908 45.6895 56.9406 47.3891 55.7409 49.4387L50.442 58.7368M32.9455 103.178C44.3932 99.9284 56.4907 99.9284 67.9384 103.178M31.9457 83.3818V77.583C20.4481 70.6344 11 57.0871 11 42.6901C11 17.9451 33.7454 -1.45091 59.4401 4.14795C70.7378 6.64743 80.6358 14.1459 85.7847 24.4938C96.2326 45.4895 85.2348 67.785 69.0881 77.533V83.3318C69.0881 84.7815 69.638 88.1308 64.2891 88.1308H36.7447C31.2459 88.1808 31.9457 86.0312 31.9457 83.3818Z" stroke="#062147" stroke-width="5" stroke-linecap="round" stroke-linejoin="round"/>
</svg>
