<svg width="123" height="106" viewBox="0 0 123 106" fill="none" xmlns="http://www.w3.org/2000/svg">
<path d="M100.222 33.7333V61.5111M16.5634 80.9528L22.0633 86.4527L33.8967 75.5085M8.55556 65.9554V30.9555C8.55556 11.5111 19.6667 3.17773 36.3333 3.17773H91.8889C108.556 3.17773 119.667 11.5111 119.667 30.9555V64.2888C119.667 83.7333 108.556 92.0666 91.8889 92.0666H44.6667M78 47.6222C78 55.2928 71.7817 61.5111 64.1111 61.5111C56.4405 61.5111 50.2222 55.2928 50.2222 47.6222C50.2222 39.9516 56.4405 33.7333 64.1111 33.7333C71.7817 33.7333 78 39.9516 78 47.6222ZM47.4444 80.9555C47.4444 85.1222 46.2779 89.0666 44.2223 92.3999C40.389 98.8444 33.3333 103.178 25.2222 103.178C17.1111 103.178 10.0555 98.8444 6.22215 92.3999C4.16659 89.0666 3 85.1222 3 80.9555C3 68.6777 12.9444 58.7333 25.2222 58.7333C37.5 58.7333 47.4444 68.6777 47.4444 80.9555Z" stroke="#062147" stroke-width="5" stroke-miterlimit="10" stroke-linecap="round" stroke-linejoin="round"/>
</svg>
