<svg width="14" height="22" viewBox="0 0 14 22" fill="none" xmlns="http://www.w3.org/2000/svg">
<path d="M5.3296 1.82255L1.49616 6.59898C0.624927 7.68546 0.932422 9.07944 2.17265 9.69443L5.99584 11.6111C6.49809 11.8571 7.31807 11.8571 7.82031 11.6111L11.6435 9.69443C12.8837 9.06919 13.1912 7.67521 12.32 6.59898L8.4968 1.82255C7.63582 0.725817 6.20084 0.725817 5.3296 1.82255Z" fill="#B5B5B5"/>
<path d="M2.6134 9.67393L6.91833 6.44523L11.2233 9.67393" fill="#B5B5B5"/>
<path d="M3.60763 13.4869L5.25785 14.2249C6.31359 14.6963 7.52307 14.6963 8.58905 14.2249L10.2393 13.4869C11.7153 12.8309 13.0785 14.6144 12.0535 15.8648L8.50705 20.2005C7.63582 21.2665 6.21109 21.2665 5.3296 20.2005L1.79341 15.8648C0.758175 14.6144 2.1214 12.8309 3.60763 13.4869Z" fill="#B5B5B5"/>
<path d="M6.91833 1.05381V6.44523M6.91833 6.44523L2.6134 9.67393M6.91833 6.44523L11.2233 9.67393M5.3296 1.82255L1.49616 6.59898C0.624927 7.68546 0.932422 9.07944 2.17265 9.69443L5.99584 11.6111C6.49809 11.8571 7.31807 11.8571 7.82031 11.6111L11.6435 9.69443C12.8837 9.06919 13.1912 7.67521 12.32 6.59898L8.4968 1.82255C7.63582 0.725817 6.20084 0.725817 5.3296 1.82255ZM3.60763 13.4869L5.25785 14.2249C6.31359 14.6963 7.52307 14.6963 8.58905 14.2249L10.2393 13.4869C11.7153 12.8309 13.0785 14.6144 12.0535 15.8648L8.50705 20.2005C7.63582 21.2665 6.21109 21.2665 5.3296 20.2005L1.79341 15.8648C0.758175 14.6144 2.1214 12.8309 3.60763 13.4869Z" stroke="#F7FAFF" stroke-miterlimit="10" stroke-linecap="round" stroke-linejoin="round"/>
</svg>
