<svg width="20" height="22" viewBox="0 0 20 22" fill="none" xmlns="http://www.w3.org/2000/svg">
<path d="M11.732 20.0018C11.5561 20.3048 11.3038 20.5564 11.0002 20.7313C10.6966 20.9062 10.3523 20.9982 10.002 20.9982C9.65157 20.9982 9.30734 20.9062 9.00373 20.7313C8.70011 20.5564 8.44776 20.3048 8.27195 20.0018M16.002 7.00177C16.002 5.41047 15.3698 3.88435 14.2446 2.75913C13.1194 1.63391 11.5933 1.00177 10.002 1.00177C8.41065 1.00177 6.88453 1.63391 5.75931 2.75913C4.63409 3.88435 4.00195 5.41047 4.00195 7.00177C4.00195 14.0018 1.00195 16.0018 1.00195 16.0018H19.002C19.002 16.0018 16.002 14.0018 16.002 7.00177Z" stroke="#062147" stroke-width="1.5" stroke-linecap="round" stroke-linejoin="round"/>
</svg>
